<?xml version="1.0" encoding="UTF-8"?>
<svg xmlns="http://www.w3.org/2000/svg" width="1200" height="1200" viewBox="0 0 1200 1200">
<rect width="100%" height="100%" fill="white"/>
<rect x="50" y="50" width="1100.000" height="1100.000" fill="none" stroke="#111827" stroke-width="2"/>
<rect x="848.770" y="158.897" width="52.990" height="29.439" fill="hsl(0.0,65%,78%)" stroke="#374151" stroke-width="0.8"><title>b0</title></rect>
<rect x="393.451" y="166.748" width="52.990" height="31.401" fill="hsl(137.5,65%,78%)" stroke="#374151" stroke-width="0.8"><title>b1</title></rect>
<rect x="50.000" y="205.999" width="51.027" height="43.177" fill="hsl(275.0,65%,78%)" stroke="#374151" stroke-width="0.8"><title>b2</title></rect>
<rect x="674.100" y="531.787" width="88.316" height="41.214" fill="hsl(52.5,65%,78%)" stroke="#374151" stroke-width="0.8"><title>b3</title></rect>
<rect x="1058.766" y="987.106" width="88.316" height="78.503" fill="hsl(190.0,65%,78%)" stroke="#374151" stroke-width="0.8"><title>b4</title></rect>
<rect x="446.441" y="158.897" width="51.027" height="31.401" fill="hsl(327.5,65%,78%)" stroke="#374151" stroke-width="0.8"><title>b5</title></rect>
<rect x="367.938" y="500.386" width="74.578" height="52.990" fill="hsl(105.0,65%,78%)" stroke="#374151" stroke-width="0.8"><title>b6</title></rect>
<rect x="662.325" y="474.873" width="68.690" height="56.915" fill="hsl(242.6,65%,78%)" stroke="#374151" stroke-width="0.8"><title>b7</title></rect>
<rect x="330.649" y="308.053" width="70.653" height="41.214" fill="hsl(20.1,65%,78%)" stroke="#374151" stroke-width="0.8"><title>b8</title></rect>
<rect x="436.628" y="612.253" width="86.353" height="49.064" fill="hsl(157.6,65%,78%)" stroke="#374151" stroke-width="0.8"><title>b9</title></rect>
<rect x="185.418" y="724.120" width="29.439" height="60.840" fill="hsl(295.1,65%,78%)" stroke="#374151" stroke-width="0.8"><title>b10</title></rect>
<rect x="1056.803" y="498.424" width="80.466" height="47.102" fill="hsl(72.6,65%,78%)" stroke="#374151" stroke-width="0.8"><title>b11</title></rect>
<rect x="774.192" y="100.020" width="37.289" height="33.364" fill="hsl(210.1,65%,78%)" stroke="#374151" stroke-width="0.8"><title>b12</title></rect>
<rect x="320.836" y="920.378" width="94.204" height="64.765" fill="hsl(347.6,65%,78%)" stroke="#374151" stroke-width="0.8"><title>b13</title></rect>
<rect x="210.932" y="490.573" width="86.353" height="41.214" fill="hsl(125.1,65%,78%)" stroke="#374151" stroke-width="0.8"><title>b14</title></rect>
<rect x="679.988" y="219.737" width="66.728" height="29.439" fill="hsl(262.6,65%,78%)" stroke="#374151" stroke-width="0.8"><title>b15</title></rect>
<rect x="882.134" y="985.143" width="88.316" height="82.428" fill="hsl(40.1,65%,78%)" stroke="#374151" stroke-width="0.8"><title>b16</title></rect>
<rect x="685.876" y="910.565" width="80.466" height="72.615" fill="hsl(177.6,65%,78%)" stroke="#374151" stroke-width="0.8"><title>b17</title></rect>
<rect x="1062.691" y="1065.609" width="86.353" height="84.391" fill="hsl(315.1,65%,78%)" stroke="#374151" stroke-width="0.8"><title>b18</title></rect>
<rect x="197.193" y="347.305" width="70.653" height="45.139" fill="hsl(92.7,65%,78%)" stroke="#374151" stroke-width="0.8"><title>b19</title></rect>
<rect x="621.111" y="129.459" width="25.514" height="33.364" fill="hsl(230.2,65%,78%)" stroke="#374151" stroke-width="0.8"><title>b20</title></rect>
<rect x="364.013" y="669.168" width="86.353" height="54.952" fill="hsl(7.7,65%,78%)" stroke="#374151" stroke-width="0.8"><title>b21</title></rect>
<rect x="297.285" y="474.873" width="68.690" height="56.915" fill="hsl(145.2,65%,78%)" stroke="#374151" stroke-width="0.8"><title>b22</title></rect>
<rect x="401.302" y="308.053" width="78.503" height="33.364" fill="hsl(282.7,65%,78%)" stroke="#374151" stroke-width="0.8"><title>b23</title></rect>
<rect x="744.753" y="158.897" width="47.102" height="35.326" fill="hsl(60.2,65%,78%)" stroke="#374151" stroke-width="0.8"><title>b24</title></rect>
<rect x="50.000" y="651.505" width="56.915" height="84.391" fill="hsl(197.7,65%,78%)" stroke="#374151" stroke-width="0.8"><title>b25</title></rect>
<rect x="868.396" y="590.665" width="35.326" height="52.990" fill="hsl(335.2,65%,78%)" stroke="#374151" stroke-width="0.8"><title>b26</title></rect>
<rect x="140.279" y="908.603" width="78.503" height="74.578" fill="hsl(112.7,65%,78%)" stroke="#374151" stroke-width="0.8"><title>b27</title></rect>
<rect x="715.314" y="135.346" width="47.102" height="23.551" fill="hsl(250.2,65%,78%)" stroke="#374151" stroke-width="0.8"><title>b28</title></rect>
<rect x="138.316" y="366.931" width="58.877" height="56.915" fill="hsl(27.7,65%,78%)" stroke="#374151" stroke-width="0.8"><title>b29</title></rect>
<rect x="232.520" y="205.999" width="54.952" height="39.252" fill="hsl(165.2,65%,78%)" stroke="#374151" stroke-width="0.8"><title>b30</title></rect>
<rect x="50.000" y="588.702" width="70.653" height="62.803" fill="hsl(302.7,65%,78%)" stroke="#374151" stroke-width="0.8"><title>b31</title></rect>
<rect x="1001.851" y="149.084" width="43.177" height="37.289" fill="hsl(80.3,65%,78%)" stroke="#374151" stroke-width="0.8"><title>b32</title></rect>
<rect x="703.539" y="1061.684" width="90.279" height="88.316" fill="hsl(217.8,65%,78%)" stroke="#374151" stroke-width="0.8"><title>b33</title></rect>
<rect x="1125.494" y="551.413" width="23.551" height="56.915" fill="hsl(355.3,65%,78%)" stroke="#374151" stroke-width="0.8"><title>b34</title></rect>
<rect x="901.760" y="145.159" width="51.027" height="23.551" fill="hsl(132.8,65%,78%)" stroke="#374151" stroke-width="0.8"><title>b35</title></rect>
<rect x="895.872" y="319.829" width="58.877" height="52.990" fill="hsl(270.3,65%,78%)" stroke="#374151" stroke-width="0.8"><title>b36</title></rect>
<rect x="328.686" y="153.010" width="56.915" height="23.551" fill="hsl(47.8,65%,78%)" stroke="#374151" stroke-width="0.8"><title>b37</title></rect>
<rect x="662.325" y="123.571" width="41.214" height="37.289" fill="hsl(185.3,65%,78%)" stroke="#374151" stroke-width="0.8"><title>b38</title></rect>
<rect x="621.111" y="162.822" width="25.514" height="23.551" fill="hsl(322.8,65%,78%)" stroke="#374151" stroke-width="0.8"><title>b39</title></rect>
<rect x="491.580" y="527.862" width="92.241" height="37.289" fill="hsl(100.3,65%,78%)" stroke="#374151" stroke-width="0.8"><title>b40</title></rect>
<rect x="923.348" y="272.727" width="70.653" height="37.289" fill="hsl(237.8,65%,78%)" stroke="#374151" stroke-width="0.8"><title>b41</title></rect>
<rect x="994.001" y="633.842" width="90.279" height="49.064" fill="hsl(15.3,65%,78%)" stroke="#374151" stroke-width="0.8"><title>b42</title></rect>
<rect x="1048.953" y="380.669" width="76.541" height="41.214" fill="hsl(152.8,65%,78%)" stroke="#374151" stroke-width="0.8"><title>b43</title></rect>
<rect x="50.000" y="249.176" width="52.990" height="47.102" fill="hsl(290.4,65%,78%)" stroke="#374151" stroke-width="0.8"><title>b44</title></rect>
<rect x="978.300" y="219.737" width="49.064" height="47.102" fill="hsl(67.9,65%,78%)" stroke="#374151" stroke-width="0.8"><title>b45</title></rect>
<rect x="269.809" y="123.571" width="37.289" height="25.514" fill="hsl(205.4,65%,78%)" stroke="#374151" stroke-width="0.8"><title>b46</title></rect>
<rect x="685.876" y="983.181" width="82.428" height="78.503" fill="hsl(342.9,65%,78%)" stroke="#374151" stroke-width="0.8"><title>b47</title></rect>
<rect x="905.685" y="419.920" width="66.728" height="54.952" fill="hsl(120.4,65%,78%)" stroke="#374151" stroke-width="0.8"><title>b48</title></rect>
<rect x="634.849" y="661.318" width="94.204" height="47.102" fill="hsl(257.9,65%,78%)" stroke="#374151" stroke-width="0.8"><title>b49</title></rect>
<rect x="232.520" y="121.608" width="37.289" height="27.476" fill="hsl(35.4,65%,78%)" stroke="#374151" stroke-width="0.8"><title>b50</title></rect>
<rect x="866.433" y="213.850" width="31.401" height="27.476" fill="hsl(172.9,65%,78%)" stroke="#374151" stroke-width="0.8"><title>b51</title></rect>
<rect x="403.264" y="272.727" width="72.615" height="35.326" fill="hsl(310.4,65%,78%)" stroke="#374151" stroke-width="0.8"><title>b52</title></rect>
<rect x="513.169" y="504.311" width="70.653" height="23.551" fill="hsl(87.9,65%,78%)" stroke="#374151" stroke-width="0.8"><title>b53</title></rect>
<rect x="762.416" y="474.873" width="66.728" height="58.877" fill="hsl(225.4,65%,78%)" stroke="#374151" stroke-width="0.8"><title>b54</title></rect>
<rect x="120.653" y="315.904" width="60.840" height="51.027" fill="hsl(2.9,65%,78%)" stroke="#374151" stroke-width="0.8"><title>b55</title></rect>
<rect x="128.503" y="847.763" width="90.279" height="60.840" fill="hsl(140.4,65%,78%)" stroke="#374151" stroke-width="0.8"><title>b56</title></rect>
<rect x="50.000" y="1057.759" width="94.204" height="92.241" fill="hsl(278.0,65%,78%)" stroke="#374151" stroke-width="0.8"><title>b57</title></rect>
<rect x="475.880" y="225.625" width="49.064" height="49.064" fill="hsl(55.5,65%,78%)" stroke="#374151" stroke-width="0.8"><title>b58</title></rect>
<rect x="513.169" y="987.106" width="92.241" height="74.578" fill="hsl(193.0,65%,78%)" stroke="#374151" stroke-width="0.8"><title>b59</title></rect>
<rect x="232.520" y="274.690" width="76.541" height="31.401" fill="hsl(330.5,65%,78%)" stroke="#374151" stroke-width="0.8"><title>b60</title></rect>
<rect x="312.986" y="786.923" width="88.316" height="60.840" fill="hsl(108.0,65%,78%)" stroke="#374151" stroke-width="0.8"><title>b61</title></rect>
<rect x="50.000" y="987.106" width="90.279" height="70.653" fill="hsl(245.5,65%,78%)" stroke="#374151" stroke-width="0.8"><title>b62</title></rect>
<rect x="50.000" y="916.453" width="90.279" height="70.653" fill="hsl(23.0,65%,78%)" stroke="#374151" stroke-width="0.8"><title>b63</title></rect>
<rect x="1068.579" y="211.887" width="64.765" height="29.439" fill="hsl(160.5,65%,78%)" stroke="#374151" stroke-width="0.8"><title>b64</title></rect>
<rect x="432.703" y="133.384" width="45.139" height="25.514" fill="hsl(298.0,65%,78%)" stroke="#374151" stroke-width="0.8"><title>b65</title></rect>
<rect x="970.450" y="985.143" width="88.316" height="82.428" fill="hsl(75.5,65%,78%)" stroke="#374151" stroke-width="0.8"><title>b66</title></rect>
<rect x="799.705" y="72.544" width="64.765" height="27.476" fill="hsl(213.0,65%,78%)" stroke="#374151" stroke-width="0.8"><title>b67</title></rect>
<rect x="452.329" y="720.195" width="88.316" height="54.952" fill="hsl(350.5,65%,78%)" stroke="#374151" stroke-width="0.8"><title>b68</title></rect>
<rect x="365.975" y="447.397" width="70.653" height="52.990" fill="hsl(128.1,65%,78%)" stroke="#374151" stroke-width="0.8"><title>b69</title></rect>
<rect x="50.000" y="392.444" width="88.316" height="31.401" fill="hsl(265.6,65%,78%)" stroke="#374151" stroke-width="0.8"><title>b70</title></rect>
<rect x="1058.766" y="545.526" width="66.728" height="62.803" fill="hsl(43.1,65%,78%)" stroke="#374151" stroke-width="0.8"><title>b71</title></rect>
<rect x="350.275" y="200.112" width="62.803" height="29.439" fill="hsl(180.6,65%,78%)" stroke="#374151" stroke-width="0.8"><title>b72</title></rect>
<rect x="515.131" y="331.604" width="90.279" height="23.551" fill="hsl(318.1,65%,78%)" stroke="#374151" stroke-width="0.8"><title>b73</title></rect>
<rect x="401.302" y="843.838" width="84.391" height="66.728" fill="hsl(95.6,65%,78%)" stroke="#374151" stroke-width="0.8"><title>b74</title></rect>
<rect x="954.749" y="310.016" width="72.615" height="39.252" fill="hsl(233.1,65%,78%)" stroke="#374151" stroke-width="0.8"><title>b75</title></rect>
<rect x="485.693" y="775.147" width="76.541" height="70.653" fill="hsl(10.6,65%,78%)" stroke="#374151" stroke-width="0.8"><title>b76</title></rect>
<rect x="352.237" y="349.268" width="78.503" height="35.326" fill="hsl(148.1,65%,78%)" stroke="#374151" stroke-width="0.8"><title>b77</title></rect>
<rect x="968.487" y="349.268" width="82.428" height="31.401" fill="hsl(285.6,65%,78%)" stroke="#374151" stroke-width="0.8"><title>b78</title></rect>
<rect x="583.822" y="504.311" width="78.503" height="49.064" fill="hsl(63.1,65%,78%)" stroke="#374151" stroke-width="0.8"><title>b79</title></rect>
<rect x="232.520" y="245.251" width="70.653" height="29.439" fill="hsl(200.6,65%,78%)" stroke="#374151" stroke-width="0.8"><title>b80</title></rect>
<rect x="795.780" y="196.186" width="62.803" height="29.439" fill="hsl(338.1,65%,78%)" stroke="#374151" stroke-width="0.8"><title>b81</title></rect>
<rect x="829.144" y="441.509" width="76.541" height="47.102" fill="hsl(115.7,65%,78%)" stroke="#374151" stroke-width="0.8"><title>b82</title></rect>
<rect x="856.620" y="847.763" width="80.466" height="72.615" fill="hsl(253.2,65%,78%)" stroke="#374151" stroke-width="0.8"><title>b83</title></rect>
<rect x="787.930" y="708.420" width="74.578" height="66.728" fill="hsl(30.7,65%,78%)" stroke="#374151" stroke-width="0.8"><title>b84</title></rect>
<rect x="670.175" y="843.838" width="84.391" height="66.728" fill="hsl(168.2,65%,78%)" stroke="#374151" stroke-width="0.8"><title>b85</title></rect>
<rect x="793.818" y="987.106" width="86.353" height="76.541" fill="hsl(305.7,65%,78%)" stroke="#374151" stroke-width="0.8"><title>b86</title></rect>
<rect x="517.094" y="1061.684" width="94.204" height="88.316" fill="hsl(83.2,65%,78%)" stroke="#374151" stroke-width="0.8"><title>b87</title></rect>
<rect x="921.385" y="724.120" width="86.353" height="56.915" fill="hsl(220.7,65%,78%)" stroke="#374151" stroke-width="0.8"><title>b88</title></rect>
<rect x="1041.103" y="421.883" width="82.428" height="39.252" fill="hsl(358.2,65%,78%)" stroke="#374151" stroke-width="0.8"><title>b89</title></rect>
<rect x="346.350" y="622.066" width="90.279" height="47.102" fill="hsl(135.7,65%,78%)" stroke="#374151" stroke-width="0.8"><title>b90</title></rect>
<rect x="513.169" y="463.097" width="84.391" height="41.214" fill="hsl(273.2,65%,78%)" stroke="#374151" stroke-width="0.8"><title>b91</title></rect>
<rect x="611.298" y="1061.684" width="92.241" height="88.316" fill="hsl(50.7,65%,78%)" stroke="#374151" stroke-width="0.8"><title>b92</title></rect>
<rect x="1090.167" y="172.635" width="47.102" height="39.252" fill="hsl(188.2,65%,78%)" stroke="#374151" stroke-width="0.8"><title>b93</title></rect>
<rect x="415.040" y="235.438" width="60.840" height="37.289" fill="hsl(325.8,65%,78%)" stroke="#374151" stroke-width="0.8"><title>b94</title></rect>
<rect x="503.356" y="914.490" width="86.353" height="72.615" fill="hsl(103.3,65%,78%)" stroke="#374151" stroke-width="0.8"><title>b95</title></rect>
<rect x="589.709" y="916.453" width="90.279" height="64.765" fill="hsl(240.8,65%,78%)" stroke="#374151" stroke-width="0.8"><title>b96</title></rect>
<rect x="994.001" y="266.839" width="78.503" height="29.439" fill="hsl(18.3,65%,78%)" stroke="#374151" stroke-width="0.8"><title>b97</title></rect>
<rect x="897.834" y="213.850" width="68.690" height="25.514" fill="hsl(155.8,65%,78%)" stroke="#374151" stroke-width="0.8"><title>b98</title></rect>
<rect x="605.410" y="308.053" width="78.503" height="33.364" fill="hsl(293.3,65%,78%)" stroke="#374151" stroke-width="0.8"><title>b99</title></rect>
<rect x="793.818" y="1063.647" width="88.316" height="86.353" fill="hsl(70.8,65%,78%)" stroke="#374151" stroke-width="0.8"><title>b100</title></rect>
<rect x="214.857" y="531.787" width="70.653" height="58.877" fill="hsl(208.3,65%,78%)" stroke="#374151" stroke-width="0.8"><title>b101</title></rect>
<rect x="937.086" y="781.035" width="78.503" height="70.653" fill="hsl(345.8,65%,78%)" stroke="#374151" stroke-width="0.8"><title>b102</title></rect>
<rect x="903.722" y="590.665" width="66.728" height="66.728" fill="hsl(123.3,65%,78%)" stroke="#374151" stroke-width="0.8"><title>b103</title></rect>
<rect x="479.805" y="304.128" width="82.428" height="27.476" fill="hsl(260.8,65%,78%)" stroke="#374151" stroke-width="0.8"><title>b104</title></rect>
<rect x="259.996" y="590.665" width="68.690" height="64.765" fill="hsl(38.3,65%,78%)" stroke="#374151" stroke-width="0.8"><title>b105</title></rect>
<rect x="438.591" y="66.656" width="64.765" height="23.551" fill="hsl(175.8,65%,78%)" stroke="#374151" stroke-width="0.8"><title>b106</title></rect>
<rect x="287.472" y="200.112" width="62.803" height="29.439" fill="hsl(313.4,65%,78%)" stroke="#374151" stroke-width="0.8"><title>b107</title></rect>
<rect x="846.807" y="775.147" width="74.578" height="72.615" fill="hsl(90.9,65%,78%)" stroke="#374151" stroke-width="0.8"><title>b108</title></rect>
<rect x="882.134" y="1067.572" width="90.279" height="82.428" fill="hsl(228.4,65%,78%)" stroke="#374151" stroke-width="0.8"><title>b109</title></rect>
<rect x="420.928" y="910.565" width="82.428" height="76.541" fill="hsl(5.9,65%,78%)" stroke="#374151" stroke-width="0.8"><title>b110</title></rect>
<rect x="191.306" y="127.496" width="41.214" height="25.514" fill="hsl(143.4,65%,78%)" stroke="#374151" stroke-width="0.8"><title>b111</title></rect>
<rect x="108.877" y="266.839" width="58.877" height="49.064" fill="hsl(280.9,65%,78%)" stroke="#374151" stroke-width="0.8"><title>b112</title></rect>
<rect x="829.144" y="394.407" width="70.653" height="47.102" fill="hsl(58.4,65%,78%)" stroke="#374151" stroke-width="0.8"><title>b113</title></rect>
<rect x="218.782" y="851.688" width="86.353" height="66.728" fill="hsl(195.9,65%,78%)" stroke="#374151" stroke-width="0.8"><title>b114</title></rect>
<rect x="772.229" y="296.278" width="66.728" height="43.177" fill="hsl(333.4,65%,78%)" stroke="#374151" stroke-width="0.8"><title>b115</title></rect>
<rect x="122.615" y="614.216" width="54.952" height="37.289" fill="hsl(110.9,65%,78%)" stroke="#374151" stroke-width="0.8"><title>b116</title></rect>
<rect x="972.412" y="380.669" width="76.541" height="41.214" fill="hsl(248.4,65%,78%)" stroke="#374151" stroke-width="0.8"><title>b117</title></rect>
<rect x="228.595" y="985.143" width="86.353" height="74.578" fill="hsl(25.9,65%,78%)" stroke="#374151" stroke-width="0.8"><title>b118</title></rect>
<rect x="364.013" y="724.120" width="88.316" height="54.952" fill="hsl(163.5,65%,78%)" stroke="#374151" stroke-width="0.8"><title>b119</title></rect>
<rect x="1007.739" y="706.457" width="70.653" height="70.653" fill="hsl(301.0,65%,78%)" stroke="#374151" stroke-width="0.8"><title>b120</title></rect>
<rect x="713.352" y="708.420" width="74.578" height="66.728" fill="hsl(78.5,65%,78%)" stroke="#374151" stroke-width="0.8"><title>b121</title></rect>
<rect x="744.753" y="435.621" width="84.391" height="39.252" fill="hsl(216.0,65%,78%)" stroke="#374151" stroke-width="0.8"><title>b122</title></rect>
<rect x="50.000" y="347.305" width="70.653" height="45.139" fill="hsl(353.5,65%,78%)" stroke="#374151" stroke-width="0.8"><title>b123</title></rect>
<rect x="768.304" y="533.750" width="68.690" height="60.840" fill="hsl(131.0,65%,78%)" stroke="#374151" stroke-width="0.8"><title>b124</title></rect>
<rect x="972.412" y="1067.572" width="90.279" height="82.428" fill="hsl(268.5,65%,78%)" stroke="#374151" stroke-width="0.8"><title>b125</title></rect>
<rect x="214.857" y="590.665" width="43.177" height="23.551" fill="hsl(46.0,65%,78%)" stroke="#374151" stroke-width="0.8"><title>b126</title></rect>
<rect x="784.005" y="594.590" width="84.391" height="49.064" fill="hsl(183.5,65%,78%)" stroke="#374151" stroke-width="0.8"><title>b127</title></rect>
<rect x="185.418" y="669.168" width="86.353" height="54.952" fill="hsl(321.0,65%,78%)" stroke="#374151" stroke-width="0.8"><title>b128</title></rect>
<rect x="422.890" y="90.207" width="66.728" height="43.177" fill="hsl(98.5,65%,78%)" stroke="#374151" stroke-width="0.8"><title>b129</title></rect>
<rect x="50.000" y="296.278" width="58.877" height="51.027" fill="hsl(236.0,65%,78%)" stroke="#374151" stroke-width="0.8"><title>b130</title></rect>
<rect x="328.686" y="1061.684" width="94.204" height="88.316" fill="hsl(13.5,65%,78%)" stroke="#374151" stroke-width="0.8"><title>b131</title></rect>
<rect x="181.493" y="311.979" width="76.541" height="35.326" fill="hsl(151.1,65%,78%)" stroke="#374151" stroke-width="0.8"><title>b132</title></rect>
<rect x="430.740" y="341.417" width="84.391" height="29.439" fill="hsl(288.6,65%,78%)" stroke="#374151" stroke-width="0.8"><title>b133</title></rect>
<rect x="228.595" y="918.416" width="92.241" height="66.728" fill="hsl(66.1,65%,78%)" stroke="#374151" stroke-width="0.8"><title>b134</title></rect>
<rect x="660.362" y="366.931" width="88.316" height="29.439" fill="hsl(203.6,65%,78%)" stroke="#374151" stroke-width="0.8"><title>b135</title></rect>
<rect x="866.433" y="121.608" width="72.615" height="23.551" fill="hsl(341.1,65%,78%)" stroke="#374151" stroke-width="0.8"><title>b136</title></rect>
<rect x="1027.365" y="211.887" width="41.214" height="54.952" fill="hsl(118.6,65%,78%)" stroke="#374151" stroke-width="0.8"><title>b137</title></rect>
<rect x="177.568" y="614.216" width="82.428" height="54.952" fill="hsl(256.1,65%,78%)" stroke="#374151" stroke-width="0.8"><title>b138</title></rect>
<rect x="214.857" y="724.120" width="72.615" height="70.653" fill="hsl(33.6,65%,78%)" stroke="#374151" stroke-width="0.8"><title>b139</title></rect>
<rect x="994.001" y="682.906" width="84.391" height="23.551" fill="hsl(171.1,65%,78%)" stroke="#374151" stroke-width="0.8"><title>b140</title></rect>
<rect x="1054.841" y="461.135" width="88.316" height="37.289" fill="hsl(308.6,65%,78%)" stroke="#374151" stroke-width="0.8"><title>b141</title></rect>
<rect x="982.225" y="474.873" width="72.615" height="52.990" fill="hsl(86.1,65%,78%)" stroke="#374151" stroke-width="0.8"><title>b142</title></rect>
<rect x="102.990" y="219.737" width="49.064" height="47.102" fill="hsl(223.6,65%,78%)" stroke="#374151" stroke-width="0.8"><title>b143</title></rect>
<rect x="475.880" y="274.690" width="78.503" height="29.439" fill="hsl(1.2,65%,78%)" stroke="#374151" stroke-width="0.8"><title>b144</title></rect>
<rect x="656.437" y="341.417" width="88.316" height="25.514" fill="hsl(138.7,65%,78%)" stroke="#374151" stroke-width="0.8"><title>b145</title></rect>
<rect x="856.620" y="920.378" width="94.204" height="64.765" fill="hsl(276.2,65%,78%)" stroke="#374151" stroke-width="0.8"><title>b146</title></rect>
<rect x="862.508" y="692.719" width="58.877" height="82.428" fill="hsl(53.7,65%,78%)" stroke="#374151" stroke-width="0.8"><title>b147</title></rect>
<rect x="497.468" y="137.309" width="39.252" height="35.326" fill="hsl(191.2,65%,78%)" stroke="#374151" stroke-width="0.8"><title>b148</title></rect>
<rect x="691.764" y="610.291" width="92.241" height="43.177" fill="hsl(328.7,65%,78%)" stroke="#374151" stroke-width="0.8"><title>b149</title></rect>
<rect x="852.695" y="249.176" width="60.840" height="45.139" fill="hsl(106.2,65%,78%)" stroke="#374151" stroke-width="0.8"><title>b150</title></rect>
<rect x="428.778" y="384.594" width="82.428" height="35.326" fill="hsl(243.7,65%,78%)" stroke="#374151" stroke-width="0.8"><title>b151</title></rect>
<rect x="829.144" y="127.496" width="37.289" height="31.401" fill="hsl(21.2,65%,78%)" stroke="#374151" stroke-width="0.8"><title>b152</title></rect>
<rect x="450.366" y="661.318" width="80.466" height="58.877" fill="hsl(158.7,65%,78%)" stroke="#374151" stroke-width="0.8"><title>b153</title></rect>
<rect x="101.027" y="147.122" width="43.177" height="33.364" fill="hsl(296.2,65%,78%)" stroke="#374151" stroke-width="0.8"><title>b154</title></rect>
<rect x="50.000" y="145.159" width="49.064" height="27.476" fill="hsl(73.7,65%,78%)" stroke="#374151" stroke-width="0.8"><title>b155</title></rect>
<rect x="731.015" y="476.835" width="31.401" height="54.952" fill="hsl(211.2,65%,78%)" stroke="#374151" stroke-width="0.8"><title>b156</title></rect>
<rect x="101.027" y="180.486" width="49.064" height="39.252" fill="hsl(348.8,65%,78%)" stroke="#374151" stroke-width="0.8"><title>b157</title></rect>
<rect x="577.934" y="565.151" width="25.514" height="45.139" fill="hsl(126.3,65%,78%)" stroke="#374151" stroke-width="0.8"><title>b158</title></rect>
<rect x="128.503" y="784.960" width="86.353" height="62.803" fill="hsl(263.8,65%,78%)" stroke="#374151" stroke-width="0.8"><title>b159</title></rect>
<rect x="939.049" y="113.758" width="52.990" height="31.401" fill="hsl(41.3,65%,78%)" stroke="#374151" stroke-width="0.8"><title>b160</title></rect>
<rect x="144.204" y="1059.721" width="92.241" height="90.279" fill="hsl(178.8,65%,78%)" stroke="#374151" stroke-width="0.8"><title>b161</title></rect>
<rect x="619.148" y="213.850" width="60.840" height="35.326" fill="hsl(316.3,65%,78%)" stroke="#374151" stroke-width="0.8"><title>b162</title></rect>
<rect x="167.755" y="268.802" width="64.765" height="43.177" fill="hsl(93.8,65%,78%)" stroke="#374151" stroke-width="0.8"><title>b163</title></rect>
<rect x="589.709" y="845.800" width="80.466" height="70.653" fill="hsl(231.3,65%,78%)" stroke="#374151" stroke-width="0.8"><title>b164</title></rect>
<rect x="536.720" y="94.132" width="41.214" height="33.364" fill="hsl(8.8,65%,78%)" stroke="#374151" stroke-width="0.8"><title>b165</title></rect>
<rect x="106.915" y="651.505" width="70.653" height="66.728" fill="hsl(146.3,65%,78%)" stroke="#374151" stroke-width="0.8"><title>b166</title></rect>
<rect x="562.233" y="722.158" width="72.615" height="70.653" fill="hsl(283.8,65%,78%)" stroke="#374151" stroke-width="0.8"><title>b167</title></rect>
<rect x="836.994" y="488.611" width="80.466" height="47.102" fill="hsl(61.3,65%,78%)" stroke="#374151" stroke-width="0.8"><title>b168</title></rect>
<rect x="205.044" y="443.471" width="76.541" height="47.102" fill="hsl(198.9,65%,78%)" stroke="#374151" stroke-width="0.8"><title>b169</title></rect>
<rect x="1092.130" y="759.447" width="56.915" height="88.316" fill="hsl(336.4,65%,78%)" stroke="#374151" stroke-width="0.8"><title>b170</title></rect>
<rect x="126.541" y="423.846" width="78.503" height="43.177" fill="hsl(113.9,65%,78%)" stroke="#374151" stroke-width="0.8"><title>b171</title></rect>
<rect x="258.033" y="149.084" width="52.990" height="25.514" fill="hsl(251.4,65%,78%)" stroke="#374151" stroke-width="0.8"><title>b172</title></rect>
<rect x="267.846" y="306.091" width="62.803" height="49.064" fill="hsl(28.9,65%,78%)" stroke="#374151" stroke-width="0.8"><title>b173</title></rect>
<rect x="267.846" y="355.155" width="84.391" height="31.401" fill="hsl(166.4,65%,78%)" stroke="#374151" stroke-width="0.8"><title>b174</title></rect>
<rect x="524.944" y="243.288" width="29.439" height="31.401" fill="hsl(303.9,65%,78%)" stroke="#374151" stroke-width="0.8"><title>b175</title></rect>
<rect x="271.771" y="655.430" width="74.578" height="64.765" fill="hsl(81.4,65%,78%)" stroke="#374151" stroke-width="0.8"><title>b176</title></rect>
<rect x="320.836" y="847.763" width="80.466" height="72.615" fill="hsl(218.9,65%,78%)" stroke="#374151" stroke-width="0.8"><title>b177</title></rect>
<rect x="1027.365" y="306.091" width="37.289" height="33.364" fill="hsl(356.4,65%,78%)" stroke="#374151" stroke-width="0.8"><title>b178</title></rect>
<rect x="950.824" y="918.416" width="90.279" height="66.728" fill="hsl(133.9,65%,78%)" stroke="#374151" stroke-width="0.8"><title>b179</title></rect>
<rect x="577.934" y="355.155" width="78.503" height="37.289" fill="hsl(271.4,65%,78%)" stroke="#374151" stroke-width="0.8"><title>b180</title></rect>
<rect x="836.994" y="339.455" width="58.877" height="54.952" fill="hsl(48.9,65%,78%)" stroke="#374151" stroke-width="0.8"><title>b181</title></rect>
<rect x="603.447" y="614.216" width="88.316" height="47.102" fill="hsl(186.5,65%,78%)" stroke="#374151" stroke-width="0.8"><title>b182</title></rect>
<rect x="1078.392" y="682.906" width="64.765" height="76.541" fill="hsl(324.0,65%,78%)" stroke="#374151" stroke-width="0.8"><title>b183</title></rect>
<rect x="813.443" y="643.654" width="90.279" height="49.064" fill="hsl(101.5,65%,78%)" stroke="#374151" stroke-width="0.8"><title>b184</title></rect>
<rect x="593.635" y="392.444" width="66.728" height="52.990" fill="hsl(239.0,65%,78%)" stroke="#374151" stroke-width="0.8"><title>b185</title></rect>
<rect x="917.460" y="474.873" width="64.765" height="60.840" fill="hsl(16.5,65%,78%)" stroke="#374151" stroke-width="0.8"><title>b186</title></rect>
<rect x="754.566" y="775.147" width="74.578" height="70.653" fill="hsl(154.0,65%,78%)" stroke="#374151" stroke-width="0.8"><title>b187</title></rect>
<rect x="50.000" y="843.838" width="78.503" height="72.615" fill="hsl(291.5,65%,78%)" stroke="#374151" stroke-width="0.8"><title>b188</title></rect>
<rect x="683.913" y="292.353" width="86.353" height="23.551" fill="hsl(69.0,65%,78%)" stroke="#374151" stroke-width="0.8"><title>b189</title></rect>
<rect x="132.428" y="467.022" width="72.615" height="52.990" fill="hsl(206.5,65%,78%)" stroke="#374151" stroke-width="0.8"><title>b190</title></rect>
<rect x="758.491" y="237.401" width="66.728" height="31.401" fill="hsl(344.0,65%,78%)" stroke="#374151" stroke-width="0.8"><title>b191</title></rect>
<rect x="218.782" y="794.773" width="94.204" height="56.915" fill="hsl(121.5,65%,78%)" stroke="#374151" stroke-width="0.8"><title>b192</title></rect>
<rect x="913.535" y="239.363" width="64.765" height="33.364" fill="hsl(259.0,65%,78%)" stroke="#374151" stroke-width="0.8"><title>b193</title></rect>
<rect x="203.081" y="153.010" width="54.952" height="25.514" fill="hsl(36.6,65%,78%)" stroke="#374151" stroke-width="0.8"><title>b194</title></rect>
<rect x="858.583" y="188.336" width="64.765" height="25.514" fill="hsl(174.1,65%,78%)" stroke="#374151" stroke-width="0.8"><title>b195</title></rect>
<rect x="605.410" y="981.218" width="80.466" height="80.466" fill="hsl(311.6,65%,78%)" stroke="#374151" stroke-width="0.8"><title>b196</title></rect>
<rect x="138.316" y="520.012" width="72.615" height="54.952" fill="hsl(89.1,65%,78%)" stroke="#374151" stroke-width="0.8"><title>b197</title></rect>
<rect x="674.100" y="573.002" width="94.204" height="37.289" fill="hsl(226.6,65%,78%)" stroke="#374151" stroke-width="0.8"><title>b198</title></rect>
<rect x="603.447" y="553.376" width="70.653" height="60.840" fill="hsl(4.1,65%,78%)" stroke="#374151" stroke-width="0.8"><title>b199</title></rect>
<rect x="1058.766" y="914.490" width="84.391" height="72.615" fill="hsl(141.6,65%,78%)" stroke="#374151" stroke-width="0.8"><title>b200</title></rect>
<rect x="1094.092" y="282.540" width="51.027" height="56.915" fill="hsl(279.1,65%,78%)" stroke="#374151" stroke-width="0.8"><title>b201</title></rect>
<rect x="287.472" y="720.195" width="76.541" height="66.728" fill="hsl(56.6,65%,78%)" stroke="#374151" stroke-width="0.8"><title>b202</title></rect>
<rect x="678.025" y="162.822" width="54.952" height="29.439" fill="hsl(194.1,65%,78%)" stroke="#374151" stroke-width="0.8"><title>b203</title></rect>
<rect x="401.302" y="779.072" width="80.466" height="64.765" fill="hsl(331.6,65%,78%)" stroke="#374151" stroke-width="0.8"><title>b204</title></rect>
<rect x="621.111" y="100.020" width="41.214" height="29.439" fill="hsl(109.1,65%,78%)" stroke="#374151" stroke-width="0.8"><title>b205</title></rect>
<rect x="503.356" y="845.800" width="82.428" height="68.690" fill="hsl(246.6,65%,78%)" stroke="#374151" stroke-width="0.8"><title>b206</title></rect>
<rect x="364.013" y="392.444" width="64.765" height="54.952" fill="hsl(24.2,65%,78%)" stroke="#374151" stroke-width="0.8"><title>b207</title></rect>
<rect x="152.054" y="196.186" width="52.990" height="39.252" fill="hsl(161.7,65%,78%)" stroke="#374151" stroke-width="0.8"><title>b208</title></rect>
<rect x="768.304" y="916.453" width="88.316" height="70.653" fill="hsl(299.2,65%,78%)" stroke="#374151" stroke-width="0.8"><title>b209</title></rect>
<rect x="444.478" y="527.862" width="47.102" height="25.514" fill="hsl(76.7,65%,78%)" stroke="#374151" stroke-width="0.8"><title>b210</title></rect>
<rect x="577.934" y="125.533" width="31.401" height="23.551" fill="hsl(214.2,65%,78%)" stroke="#374151" stroke-width="0.8"><title>b211</title></rect>
<rect x="281.584" y="433.658" width="82.428" height="41.214" fill="hsl(351.7,65%,78%)" stroke="#374151" stroke-width="0.8"><title>b212</title></rect>
<rect x="583.822" y="186.373" width="62.803" height="27.476" fill="hsl(129.2,65%,78%)" stroke="#374151" stroke-width="0.8"><title>b213</title></rect>
<rect x="524.944" y="172.635" width="52.990" height="33.364" fill="hsl(266.7,65%,78%)" stroke="#374151" stroke-width="0.8"><title>b214</title></rect>
<rect x="358.125" y="231.513" width="56.915" height="41.214" fill="hsl(44.2,65%,78%)" stroke="#374151" stroke-width="0.8"><title>b215</title></rect>
<rect x="660.362" y="396.369" width="82.428" height="37.289" fill="hsl(181.7,65%,78%)" stroke="#374151" stroke-width="0.8"><title>b216</title></rect>
<rect x="120.653" y="574.964" width="94.204" height="39.252" fill="hsl(319.2,65%,78%)" stroke="#374151" stroke-width="0.8"><title>b217</title></rect>
<rect x="1050.916" y="339.455" width="84.391" height="29.439" fill="hsl(96.7,65%,78%)" stroke="#374151" stroke-width="0.8"><title>b218</title></rect>
<rect x="469.992" y="190.299" width="54.952" height="35.326" fill="hsl(234.3,65%,78%)" stroke="#374151" stroke-width="0.8"><title>b219</title></rect>
<rect x="418.965" y="553.376" width="72.615" height="58.877" fill="hsl(11.8,65%,78%)" stroke="#374151" stroke-width="0.8"><title>b220</title></rect>
<rect x="744.753" y="339.455" width="88.316" height="25.514" fill="hsl(149.3,65%,78%)" stroke="#374151" stroke-width="0.8"><title>b221</title></rect>
<rect x="511.206" y="370.856" width="66.728" height="49.064" fill="hsl(286.8,65%,78%)" stroke="#374151" stroke-width="0.8"><title>b222</title></rect>
<rect x="577.934" y="149.084" width="43.177" height="37.289" fill="hsl(64.3,65%,78%)" stroke="#374151" stroke-width="0.8"><title>b223</title></rect>
<rect x="50.000" y="533.750" width="88.316" height="41.214" fill="hsl(201.8,65%,78%)" stroke="#374151" stroke-width="0.8"><title>b224</title></rect>
<rect x="420.928" y="987.106" width="92.241" height="74.578" fill="hsl(339.3,65%,78%)" stroke="#374151" stroke-width="0.8"><title>b225</title></rect>
<rect x="562.233" y="276.652" width="76.541" height="31.401" fill="hsl(116.8,65%,78%)" stroke="#374151" stroke-width="0.8"><title>b226</title></rect>
<rect x="265.884" y="174.598" width="62.803" height="25.514" fill="hsl(254.3,65%,78%)" stroke="#374151" stroke-width="0.8"><title>b227</title></rect>
<rect x="960.637" y="149.084" width="41.214" height="39.252" fill="hsl(31.8,65%,78%)" stroke="#374151" stroke-width="0.8"><title>b228</title></rect>
<rect x="540.645" y="675.056" width="94.204" height="47.102" fill="hsl(169.3,65%,78%)" stroke="#374151" stroke-width="0.8"><title>b229</title></rect>
<rect x="597.560" y="445.434" width="64.765" height="58.877" fill="hsl(306.8,65%,78%)" stroke="#374151" stroke-width="0.8"><title>b230</title></rect>
<rect x="966.525" y="188.336" width="58.877" height="31.401" fill="hsl(84.3,65%,78%)" stroke="#374151" stroke-width="0.8"><title>b231</title></rect>
<rect x="50.000" y="488.611" width="82.428" height="45.139" fill="hsl(221.9,65%,78%)" stroke="#374151" stroke-width="0.8"><title>b232</title></rect>
<rect x="352.237" y="127.496" width="31.401" height="25.514" fill="hsl(359.4,65%,78%)" stroke="#374151" stroke-width="0.8"><title>b233</title></rect>
<rect x="554.383" y="241.326" width="64.765" height="35.326" fill="hsl(136.9,65%,78%)" stroke="#374151" stroke-width="0.8"><title>b234</title></rect>
<rect x="328.686" y="578.889" width="90.279" height="43.177" fill="hsl(274.4,65%,78%)" stroke="#374151" stroke-width="0.8"><title>b235</title></rect>
<rect x="836.994" y="537.675" width="76.541" height="52.990" fill="hsl(51.9,65%,78%)" stroke="#374151" stroke-width="0.8"><title>b236</title></rect>
<rect x="205.044" y="392.444" width="78.503" height="41.214" fill="hsl(189.4,65%,78%)" stroke="#374151" stroke-width="0.8"><title>b237</title></rect>
<rect x="913.535" y="535.713" width="76.541" height="52.990" fill="hsl(326.9,65%,78%)" stroke="#374151" stroke-width="0.8"><title>b238</title></rect>
<rect x="436.628" y="419.920" width="78.503" height="43.177" fill="hsl(104.4,65%,78%)" stroke="#374151" stroke-width="0.8"><title>b239</title></rect>
<rect x="923.348" y="168.710" width="37.289" height="45.139" fill="hsl(241.9,65%,78%)" stroke="#374151" stroke-width="0.8"><title>b240</title></rect>
<rect x="385.601" y="141.234" width="47.102" height="25.514" fill="hsl(19.4,65%,78%)" stroke="#374151" stroke-width="0.8"><title>b241</title></rect>
<rect x="515.131" y="419.920" width="78.503" height="43.177" fill="hsl(156.9,65%,78%)" stroke="#374151" stroke-width="0.8"><title>b242</title></rect>
<rect x="921.385" y="657.393" width="72.615" height="66.728" fill="hsl(294.4,65%,78%)" stroke="#374151" stroke-width="0.8"><title>b243</title></rect>
<rect x="768.304" y="989.068" width="25.514" height="72.615" fill="hsl(72.0,65%,78%)" stroke="#374151" stroke-width="0.8"><title>b244</title></rect>
<rect x="283.547" y="386.557" width="70.653" height="47.102" fill="hsl(209.5,65%,78%)" stroke="#374151" stroke-width="0.8"><title>b245</title></rect>
<rect x="491.580" y="565.151" width="86.353" height="45.139" fill="hsl(347.0,65%,78%)" stroke="#374151" stroke-width="0.8"><title>b246</title></rect>
<rect x="1015.589" y="777.110" width="76.541" height="70.653" fill="hsl(124.5,65%,78%)" stroke="#374151" stroke-width="0.8"><title>b247</title></rect>
<rect x="656.437" y="782.998" width="84.391" height="60.840" fill="hsl(262.0,65%,78%)" stroke="#374151" stroke-width="0.8"><title>b248</title></rect>
<rect x="972.412" y="421.883" width="68.690" height="52.990" fill="hsl(39.5,65%,78%)" stroke="#374151" stroke-width="0.8"><title>b249</title></rect>
<rect x="990.076" y="527.862" width="66.728" height="60.840" fill="hsl(177.0,65%,78%)" stroke="#374151" stroke-width="0.8"><title>b250</title></rect>
<rect x="1023.439" y="847.763" width="84.391" height="66.728" fill="hsl(314.5,65%,78%)" stroke="#374151" stroke-width="0.8"><title>b251</title></rect>
<rect x="415.040" y="198.149" width="54.952" height="37.289" fill="hsl(92.0,65%,78%)" stroke="#374151" stroke-width="0.8"><title>b252</title></rect>
<rect x="207.006" y="205.999" width="25.514" height="29.439" fill="hsl(229.5,65%,78%)" stroke="#374151" stroke-width="0.8"><title>b253</title></rect>
<rect x="144.204" y="139.272" width="47.102" height="25.514" fill="hsl(7.0,65%,78%)" stroke="#374151" stroke-width="0.8"><title>b254</title></rect>
<rect x="328.686" y="985.143" width="92.241" height="76.541" fill="hsl(144.5,65%,78%)" stroke="#374151" stroke-width="0.8"><title>b255</title></rect>
<rect x="827.181" y="227.588" width="25.514" height="41.214" fill="hsl(282.0,65%,78%)" stroke="#374151" stroke-width="0.8"><title>b256</title></rect>
<rect x="167.755" y="235.438" width="64.765" height="33.364" fill="hsl(59.6,65%,78%)" stroke="#374151" stroke-width="0.8"><title>b257</title></rect>
<rect x="937.086" y="851.688" width="86.353" height="66.728" fill="hsl(197.1,65%,78%)" stroke="#374151" stroke-width="0.8"><title>b258</title></rect>
<rect x="367.938" y="555.338" width="51.027" height="23.551" fill="hsl(334.6,65%,78%)" stroke="#374151" stroke-width="0.8"><title>b259</title></rect>
<rect x="562.233" y="308.053" width="37.289" height="23.551" fill="hsl(112.1,65%,78%)" stroke="#374151" stroke-width="0.8"><title>b260</title></rect>
<rect x="683.913" y="315.904" width="88.316" height="23.551" fill="hsl(249.6,65%,78%)" stroke="#374151" stroke-width="0.8"><title>b261</title></rect>
<rect x="562.233" y="792.811" width="94.204" height="52.990" fill="hsl(27.1,65%,78%)" stroke="#374151" stroke-width="0.8"><title>b262</title></rect>
<rect x="236.445" y="1059.721" width="92.241" height="90.279" fill="hsl(164.6,65%,78%)" stroke="#374151" stroke-width="0.8"><title>b263</title></rect>
<rect x="970.450" y="588.702" width="88.316" height="45.139" fill="hsl(302.1,65%,78%)" stroke="#374151" stroke-width="0.8"><title>b264</title></rect>
<rect x="748.678" y="364.968" width="88.316" height="29.439" fill="hsl(79.6,65%,78%)" stroke="#374151" stroke-width="0.8"><title>b265</title></rect>
<rect x="422.890" y="1061.684" width="94.204" height="88.316" fill="hsl(217.1,65%,78%)" stroke="#374151" stroke-width="0.8"><title>b266</title></rect>
<rect x="108.877" y="718.233" width="76.541" height="66.728" fill="hsl(354.6,65%,78%)" stroke="#374151" stroke-width="0.8"><title>b267</title></rect>
<rect x="746.716" y="194.224" width="49.064" height="43.177" fill="hsl(132.1,65%,78%)" stroke="#374151" stroke-width="0.8"><title>b268</title></rect>
<rect x="330.649" y="272.727" width="72.615" height="35.326" fill="hsl(269.7,65%,78%)" stroke="#374151" stroke-width="0.8"><title>b269</title></rect>
<rect x="536.720" y="127.496" width="29.439" height="45.139" fill="hsl(47.2,65%,78%)" stroke="#374151" stroke-width="0.8"><title>b270</title></rect>
<rect x="285.510" y="531.787" width="82.428" height="47.102" fill="hsl(184.7,65%,78%)" stroke="#374151" stroke-width="0.8"><title>b271</title></rect>
<rect x="899.797" y="372.819" width="68.690" height="47.102" fill="hsl(322.2,65%,78%)" stroke="#374151" stroke-width="0.8"><title>b272</title></rect>
<rect x="699.614" y="251.139" width="58.877" height="41.214" fill="hsl(99.7,65%,78%)" stroke="#374151" stroke-width="0.8"><title>b273</title></rect>
<rect x="1107.830" y="849.725" width="41.214" height="64.765" fill="hsl(237.2,65%,78%)" stroke="#374151" stroke-width="0.8"><title>b274</title></rect>
<rect x="303.173" y="229.550" width="54.952" height="43.177" fill="hsl(14.7,65%,78%)" stroke="#374151" stroke-width="0.8"><title>b275</title></rect>
<rect x="205.044" y="178.523" width="60.840" height="27.476" fill="hsl(152.2,65%,78%)" stroke="#374151" stroke-width="0.8"><title>b276</title></rect>
<rect x="1125.494" y="368.893" width="23.551" height="92.241" fill="hsl(289.7,65%,78%)" stroke="#374151" stroke-width="0.8"><title>b277</title></rect>
<rect x="770.267" y="268.802" width="82.428" height="25.514" fill="hsl(67.2,65%,78%)" stroke="#374151" stroke-width="0.8"><title>b278</title></rect>
<rect x="144.204" y="983.181" width="84.391" height="76.541" fill="hsl(204.7,65%,78%)" stroke="#374151" stroke-width="0.8"><title>b279</title></rect>
<rect x="638.774" y="249.176" width="60.840" height="43.177" fill="hsl(342.2,65%,78%)" stroke="#374151" stroke-width="0.8"><title>b280</title></rect>
<rect x="524.944" y="205.999" width="58.877" height="35.326" fill="hsl(119.7,65%,78%)" stroke="#374151" stroke-width="0.8"><title>b281</title></rect>
<rect x="50.000" y="757.484" width="58.877" height="86.353" fill="hsl(257.3,65%,78%)" stroke="#374151" stroke-width="0.8"><title>b282</title></rect>
<rect x="589.709" y="215.812" width="29.439" height="25.514" fill="hsl(34.8,65%,78%)" stroke="#374151" stroke-width="0.8"><title>b283</title></rect>
<rect x="1072.504" y="241.326" width="58.877" height="41.214" fill="hsl(172.3,65%,78%)" stroke="#374151" stroke-width="0.8"><title>b284</title></rect>
<rect x="1025.402" y="186.373" width="64.765" height="25.514" fill="hsl(309.8,65%,78%)" stroke="#374151" stroke-width="0.8"><title>b285</title></rect>
<rect x="766.342" y="845.800" width="80.466" height="70.653" fill="hsl(87.3,65%,78%)" stroke="#374151" stroke-width="0.8"><title>b286</title></rect>
<rect x="662.325" y="433.658" width="82.428" height="41.214" fill="hsl(224.8,65%,78%)" stroke="#374151" stroke-width="0.8"><title>b287</title></rect>
<rect x="442.516" y="472.910" width="70.653" height="54.952" fill="hsl(2.3,65%,78%)" stroke="#374151" stroke-width="0.8"><title>b288</title></rect>
<rect x="530.832" y="610.291" width="72.615" height="64.765" fill="hsl(139.8,65%,78%)" stroke="#374151" stroke-width="0.8"><title>b289</title></rect>
<rect x="795.780" y="164.785" width="52.990" height="31.401" fill="hsl(277.3,65%,78%)" stroke="#374151" stroke-width="0.8"><title>b290</title></rect>
<rect x="729.053" y="653.467" width="84.391" height="54.952" fill="hsl(54.8,65%,78%)" stroke="#374151" stroke-width="0.8"><title>b291</title></rect>
<rect x="50.000" y="441.509" width="76.541" height="47.102" fill="hsl(192.3,65%,78%)" stroke="#374151" stroke-width="0.8"><title>b292</title></rect>
<rect x="744.753" y="398.332" width="84.391" height="37.289" fill="hsl(329.8,65%,78%)" stroke="#374151" stroke-width="0.8"><title>b293</title></rect>
<rect x="50.000" y="172.635" width="51.027" height="33.364" fill="hsl(107.4,65%,78%)" stroke="#374151" stroke-width="0.8"><title>b294</title></rect>
<rect x="838.957" y="294.315" width="84.391" height="25.514" fill="hsl(244.9,65%,78%)" stroke="#374151" stroke-width="0.8"><title>b295</title></rect>
<rect x="646.624" y="160.860" width="31.401" height="52.990" fill="hsl(22.4,65%,78%)" stroke="#374151" stroke-width="0.8"><title>b296</title></rect>
<rect x="1084.279" y="608.328" width="60.840" height="74.578" fill="hsl(159.9,65%,78%)" stroke="#374151" stroke-width="0.8"><title>b297</title></rect>
<rect x="634.849" y="718.233" width="78.503" height="64.765" fill="hsl(297.4,65%,78%)" stroke="#374151" stroke-width="0.8"><title>b298</title></rect>
<rect x="1058.766" y="608.328" width="25.514" height="25.514" fill="hsl(74.9,65%,78%)" stroke="#374151" stroke-width="0.8"><title>b299</title></rect>
<text x="50" y="1182" font-family="sans-serif" font-size="14" fill="#111827">L=560.486842; integer-limit=560; HPWL=823577; status=FEASIBLE</text>
</svg>
