<?xml version="1.0" encoding="UTF-8"?>
<svg xmlns="http://www.w3.org/2000/svg" width="1200" height="1200" viewBox="0 0 1200 1200">
<rect width="100%" height="100%" fill="white"/>
<rect x="50" y="50" width="1100.000" height="907.640" fill="none" stroke="#111827" stroke-width="2"/>
<rect x="1021.138" y="445.925" width="50.424" height="28.014" fill="hsl(0.0,65%,78%)" stroke="#374151" stroke-width="0.8"><title>b0</title></rect>
<rect x="991.256" y="432.852" width="29.881" height="50.424" fill="hsl(137.5,65%,78%)" stroke="#374151" stroke-width="0.8"><title>b1</title></rect>
<rect x="1071.562" y="427.250" width="48.557" height="41.087" fill="hsl(275.0,65%,78%)" stroke="#374151" stroke-width="0.8"><title>b2</title></rect>
<rect x="309.593" y="444.058" width="39.219" height="84.041" fill="hsl(52.5,65%,78%)" stroke="#374151" stroke-width="0.8"><title>b3</title></rect>
<rect x="272.241" y="873.599" width="74.703" height="84.041" fill="hsl(190.0,65%,78%)" stroke="#374151" stroke-width="0.8"><title>b4</title></rect>
<rect x="1120.119" y="419.779" width="29.881" height="48.557" fill="hsl(327.5,65%,78%)" stroke="#374151" stroke-width="0.8"><title>b5</title></rect>
<rect x="737.267" y="813.837" width="50.424" height="70.968" fill="hsl(105.0,65%,78%)" stroke="#374151" stroke-width="0.8"><title>b6</title></rect>
<rect x="931.494" y="892.275" width="54.160" height="65.365" fill="hsl(242.6,65%,78%)" stroke="#374151" stroke-width="0.8"><title>b7</title></rect>
<rect x="856.791" y="610.272" width="39.219" height="67.233" fill="hsl(20.1,65%,78%)" stroke="#374151" stroke-width="0.8"><title>b8</title></rect>
<rect x="382.428" y="81.749" width="46.689" height="82.173" fill="hsl(157.6,65%,78%)" stroke="#374151" stroke-width="0.8"><title>b9</title></rect>
<rect x="931.494" y="419.779" width="28.014" height="57.895" fill="hsl(295.1,65%,78%)" stroke="#374151" stroke-width="0.8"><title>b10</title></rect>
<rect x="509.423" y="51.868" width="76.570" height="44.822" fill="hsl(72.6,65%,78%)" stroke="#374151" stroke-width="0.8"><title>b11</title></rect>
<rect x="1064.092" y="147.114" width="31.749" height="35.484" fill="hsl(210.1,65%,78%)" stroke="#374151" stroke-width="0.8"><title>b12</title></rect>
<rect x="50.000" y="509.423" width="61.630" height="89.643" fill="hsl(347.6,65%,78%)" stroke="#374151" stroke-width="0.8"><title>b13</title></rect>
<rect x="417.912" y="281.579" width="39.219" height="82.173" fill="hsl(125.1,65%,78%)" stroke="#374151" stroke-width="0.8"><title>b14</title></rect>
<rect x="1105.178" y="830.645" width="28.014" height="63.497" fill="hsl(262.6,65%,78%)" stroke="#374151" stroke-width="0.8"><title>b15</title></rect>
<rect x="244.228" y="701.783" width="78.438" height="84.041" fill="hsl(40.1,65%,78%)" stroke="#374151" stroke-width="0.8"><title>b16</title></rect>
<rect x="587.861" y="53.735" width="76.570" height="69.100" fill="hsl(177.6,65%,78%)" stroke="#374151" stroke-width="0.8"><title>b17</title></rect>
<rect x="348.812" y="445.925" width="80.306" height="82.173" fill="hsl(315.1,65%,78%)" stroke="#374151" stroke-width="0.8"><title>b18</title></rect>
<rect x="843.718" y="541.171" width="42.954" height="67.233" fill="hsl(92.7,65%,78%)" stroke="#374151" stroke-width="0.8"><title>b19</title></rect>
<rect x="1011.800" y="66.808" width="24.278" height="31.749" fill="hsl(230.2,65%,78%)" stroke="#374151" stroke-width="0.8"><title>b20</title></rect>
<rect x="330.136" y="81.749" width="52.292" height="82.173" fill="hsl(7.7,65%,78%)" stroke="#374151" stroke-width="0.8"><title>b21</title></rect>
<rect x="899.745" y="825.042" width="54.160" height="65.365" fill="hsl(145.2,65%,78%)" stroke="#374151" stroke-width="0.8"><title>b22</title></rect>
<rect x="642.020" y="808.234" width="31.749" height="74.703" fill="hsl(282.7,65%,78%)" stroke="#374151" stroke-width="0.8"><title>b23</title></rect>
<rect x="1114.516" y="313.328" width="33.616" height="44.822" fill="hsl(60.2,65%,78%)" stroke="#374151" stroke-width="0.8"><title>b24</title></rect>
<rect x="414.177" y="546.774" width="54.160" height="80.306" fill="hsl(197.7,65%,78%)" stroke="#374151" stroke-width="0.8"><title>b25</title></rect>
<rect x="959.508" y="483.277" width="50.424" height="33.616" fill="hsl(335.2,65%,78%)" stroke="#374151" stroke-width="0.8"><title>b26</title></rect>
<rect x="511.290" y="882.937" width="70.968" height="74.703" fill="hsl(112.7,65%,78%)" stroke="#374151" stroke-width="0.8"><title>b27</title></rect>
<rect x="1118.251" y="360.017" width="22.411" height="44.822" fill="hsl(250.2,65%,78%)" stroke="#374151" stroke-width="0.8"><title>b28</title></rect>
<rect x="933.362" y="163.922" width="54.160" height="56.027" fill="hsl(27.7,65%,78%)" stroke="#374151" stroke-width="0.8"><title>b29</title></rect>
<rect x="966.978" y="550.509" width="52.292" height="37.351" fill="hsl(165.2,65%,78%)" stroke="#374151" stroke-width="0.8"><title>b30</title></rect>
<rect x="817.572" y="337.606" width="67.233" height="59.762" fill="hsl(302.7,65%,78%)" stroke="#374151" stroke-width="0.8"><title>b31</title></rect>
<rect x="1064.092" y="253.565" width="41.087" height="35.484" fill="hsl(80.3,65%,78%)" stroke="#374151" stroke-width="0.8"><title>b32</title></rect>
<rect x="216.214" y="162.054" width="84.041" height="85.908" fill="hsl(217.8,65%,78%)" stroke="#374151" stroke-width="0.8"><title>b33</title></rect>
<rect x="632.683" y="219.949" width="54.160" height="22.411" fill="hsl(355.3,65%,78%)" stroke="#374151" stroke-width="0.8"><title>b34</title></rect>
<rect x="1123.854" y="507.555" width="22.411" height="48.557" fill="hsl(132.8,65%,78%)" stroke="#374151" stroke-width="0.8"><title>b35</title></rect>
<rect x="946.435" y="363.752" width="50.424" height="56.027" fill="hsl(270.3,65%,78%)" stroke="#374151" stroke-width="0.8"><title>b36</title></rect>
<rect x="877.334" y="50.000" width="54.160" height="22.411" fill="hsl(47.8,65%,78%)" stroke="#374151" stroke-width="0.8"><title>b37</title></rect>
<rect x="1097.708" y="199.406" width="39.219" height="35.484" fill="hsl(185.3,65%,78%)" stroke="#374151" stroke-width="0.8"><title>b38</title></rect>
<rect x="429.117" y="363.752" width="24.278" height="22.411" fill="hsl(322.8,65%,78%)" stroke="#374151" stroke-width="0.8"><title>b39</title></rect>
<rect x="190.068" y="335.739" width="35.484" height="87.776" fill="hsl(100.3,65%,78%)" stroke="#374151" stroke-width="0.8"><title>b40</title></rect>
<rect x="862.394" y="473.939" width="35.484" height="67.233" fill="hsl(237.8,65%,78%)" stroke="#374151" stroke-width="0.8"><title>b41</title></rect>
<rect x="197.538" y="696.180" width="46.689" height="85.908" fill="hsl(15.3,65%,78%)" stroke="#374151" stroke-width="0.8"><title>b42</title></rect>
<rect x="673.769" y="401.104" width="72.835" height="39.219" fill="hsl(152.8,65%,78%)" stroke="#374151" stroke-width="0.8"><title>b43</title></rect>
<rect x="1073.430" y="528.098" width="50.424" height="44.822" fill="hsl(290.4,65%,78%)" stroke="#374151" stroke-width="0.8"><title>b44</title></rect>
<rect x="1067.827" y="313.328" width="46.689" height="44.822" fill="hsl(67.9,65%,78%)" stroke="#374151" stroke-width="0.8"><title>b45</title></rect>
<rect x="1011.800" y="98.557" width="35.484" height="24.278" fill="hsl(205.4,65%,78%)" stroke="#374151" stroke-width="0.8"><title>b46</title></rect>
<rect x="481.409" y="468.336" width="74.703" height="78.438" fill="hsl(342.9,65%,78%)" stroke="#374151" stroke-width="0.8"><title>b47</title></rect>
<rect x="914.686" y="561.715" width="52.292" height="63.497" fill="hsl(120.4,65%,78%)" stroke="#374151" stroke-width="0.8"><title>b48</title></rect>
<rect x="50.000" y="61.205" width="44.822" height="89.643" fill="hsl(257.9,65%,78%)" stroke="#374151" stroke-width="0.8"><title>b49</title></rect>
<rect x="1047.284" y="120.968" width="35.484" height="26.146" fill="hsl(35.4,65%,78%)" stroke="#374151" stroke-width="0.8"><title>b50</title></rect>
<rect x="1036.078" y="68.676" width="26.146" height="29.881" fill="hsl(172.9,65%,78%)" stroke="#374151" stroke-width="0.8"><title>b51</title></rect>
<rect x="795.161" y="264.771" width="33.616" height="69.100" fill="hsl(310.4,65%,78%)" stroke="#374151" stroke-width="0.8"><title>b52</title></rect>
<rect x="881.070" y="406.706" width="22.411" height="67.233" fill="hsl(87.9,65%,78%)" stroke="#374151" stroke-width="0.8"><title>b53</title></rect>
<rect x="985.654" y="894.143" width="56.027" height="63.497" fill="hsl(225.4,65%,78%)" stroke="#374151" stroke-width="0.8"><title>b54</title></rect>
<rect x="877.334" y="72.411" width="48.557" height="57.895" fill="hsl(2.9,65%,78%)" stroke="#374151" stroke-width="0.8"><title>b55</title></rect>
<rect x="182.598" y="524.363" width="57.895" height="85.908" fill="hsl(140.4,65%,78%)" stroke="#374151" stroke-width="0.8"><title>b56</title></rect>
<rect x="50.000" y="867.997" width="87.776" height="89.643" fill="hsl(278.0,65%,78%)" stroke="#374151" stroke-width="0.8"><title>b57</title></rect>
<rect x="1071.562" y="358.149" width="46.689" height="46.689" fill="hsl(55.5,65%,78%)" stroke="#374151" stroke-width="0.8"><title>b58</title></rect>
<rect x="111.630" y="511.290" width="70.968" height="87.776" fill="hsl(193.0,65%,78%)" stroke="#374151" stroke-width="0.8"><title>b59</title></rect>
<rect x="537.436" y="281.579" width="72.835" height="29.881" fill="hsl(330.5,65%,78%)" stroke="#374151" stroke-width="0.8"><title>b60</title></rect>
<rect x="335.739" y="789.559" width="57.895" height="84.041" fill="hsl(108.0,65%,78%)" stroke="#374151" stroke-width="0.8"><title>b61</title></rect>
<rect x="137.776" y="871.732" width="67.233" height="85.908" fill="hsl(245.5,65%,78%)" stroke="#374151" stroke-width="0.8"><title>b62</title></rect>
<rect x="205.008" y="871.732" width="67.233" height="85.908" fill="hsl(23.0,65%,78%)" stroke="#374151" stroke-width="0.8"><title>b63</title></rect>
<rect x="1121.986" y="656.961" width="28.014" height="61.630" fill="hsl(160.5,65%,78%)" stroke="#374151" stroke-width="0.8"><title>b64</title></rect>
<rect x="1067.827" y="289.049" width="42.954" height="24.278" fill="hsl(298.0,65%,78%)" stroke="#374151" stroke-width="0.8"><title>b65</title></rect>
<rect x="257.301" y="787.691" width="78.438" height="84.041" fill="hsl(75.5,65%,78%)" stroke="#374151" stroke-width="0.8"><title>b66</title></rect>
<rect x="828.778" y="214.346" width="26.146" height="61.630" fill="hsl(213.0,65%,78%)" stroke="#374151" stroke-width="0.8"><title>b67</title></rect>
<rect x="262.903" y="528.098" width="52.292" height="84.041" fill="hsl(350.5,65%,78%)" stroke="#374151" stroke-width="0.8"><title>b68</title></rect>
<rect x="849.321" y="821.307" width="50.424" height="67.233" fill="hsl(128.1,65%,78%)" stroke="#374151" stroke-width="0.8"><title>b69</title></rect>
<rect x="324.533" y="619.610" width="29.881" height="84.041" fill="hsl(265.6,65%,78%)" stroke="#374151" stroke-width="0.8"><title>b70</title></rect>
<rect x="942.699" y="761.545" width="59.762" height="63.497" fill="hsl(43.1,65%,78%)" stroke="#374151" stroke-width="0.8"><title>b71</title></rect>
<rect x="884.805" y="346.944" width="28.014" height="59.762" fill="hsl(180.6,65%,78%)" stroke="#374151" stroke-width="0.8"><title>b72</title></rect>
<rect x="240.492" y="524.363" width="22.411" height="85.908" fill="hsl(318.1,65%,78%)" stroke="#374151" stroke-width="0.8"><title>b73</title></rect>
<rect x="445.925" y="711.121" width="63.497" height="80.306" fill="hsl(95.6,65%,78%)" stroke="#374151" stroke-width="0.8"><title>b74</title></rect>
<rect x="746.604" y="402.971" width="69.100" height="37.351" fill="hsl(233.1,65%,78%)" stroke="#374151" stroke-width="0.8"><title>b75</title></rect>
<rect x="643.888" y="660.696" width="67.233" height="72.835" fill="hsl(10.6,65%,78%)" stroke="#374151" stroke-width="0.8"><title>b76</title></rect>
<rect x="614.007" y="733.531" width="33.616" height="74.703" fill="hsl(148.1,65%,78%)" stroke="#374151" stroke-width="0.8"><title>b77</title></rect>
<rect x="587.861" y="317.063" width="29.881" height="78.438" fill="hsl(285.6,65%,78%)" stroke="#374151" stroke-width="0.8"><title>b78</title></rect>
<rect x="582.258" y="882.937" width="46.689" height="74.703" fill="hsl(63.1,65%,78%)" stroke="#374151" stroke-width="0.8"><title>b79</title></rect>
<rect x="886.672" y="543.039" width="28.014" height="67.233" fill="hsl(200.6,65%,78%)" stroke="#374151" stroke-width="0.8"><title>b80</title></rect>
<rect x="903.480" y="417.912" width="28.014" height="59.762" fill="hsl(338.1,65%,78%)" stroke="#374151" stroke-width="0.8"><title>b81</title></rect>
<rect x="703.650" y="513.158" width="44.822" height="72.835" fill="hsl(115.7,65%,78%)" stroke="#374151" stroke-width="0.8"><title>b82</title></rect>
<rect x="617.742" y="128.438" width="69.100" height="76.570" fill="hsl(253.2,65%,78%)" stroke="#374151" stroke-width="0.8"><title>b83</title></rect>
<rect x="776.486" y="117.233" width="63.497" height="70.968" fill="hsl(30.7,65%,78%)" stroke="#374151" stroke-width="0.8"><title>b84</title></rect>
<rect x="447.793" y="795.161" width="63.497" height="80.306" fill="hsl(168.2,65%,78%)" stroke="#374151" stroke-width="0.8"><title>b85</title></rect>
<rect x="225.552" y="356.282" width="72.835" height="82.173" fill="hsl(305.7,65%,78%)" stroke="#374151" stroke-width="0.8"><title>b86</title></rect>
<rect x="50.000" y="599.066" width="84.041" height="89.643" fill="hsl(83.2,65%,78%)" stroke="#374151" stroke-width="0.8"><title>b87</title></rect>
<rect x="393.633" y="791.426" width="54.160" height="82.173" fill="hsl(220.7,65%,78%)" stroke="#374151" stroke-width="0.8"><title>b88</title></rect>
<rect x="550.509" y="311.460" width="37.351" height="78.438" fill="hsl(358.2,65%,78%)" stroke="#374151" stroke-width="0.8"><title>b89</title></rect>
<rect x="212.479" y="785.823" width="44.822" height="85.908" fill="hsl(135.7,65%,78%)" stroke="#374151" stroke-width="0.8"><title>b90</title></rect>
<rect x="483.277" y="630.815" width="39.219" height="80.306" fill="hsl(273.2,65%,78%)" stroke="#374151" stroke-width="0.8"><title>b91</title></rect>
<rect x="132.173" y="152.716" width="84.041" height="87.776" fill="hsl(50.7,65%,78%)" stroke="#374151" stroke-width="0.8"><title>b92</title></rect>
<rect x="686.842" y="128.438" width="44.822" height="37.351" fill="hsl(188.2,65%,78%)" stroke="#374151" stroke-width="0.8"><title>b93</title></rect>
<rect x="907.216" y="289.049" width="35.484" height="57.895" fill="hsl(325.8,65%,78%)" stroke="#374151" stroke-width="0.8"><title>b94</title></rect>
<rect x="360.017" y="363.752" width="69.100" height="82.173" fill="hsl(103.3,65%,78%)" stroke="#374151" stroke-width="0.8"><title>b95</title></rect>
<rect x="134.041" y="610.272" width="61.630" height="85.908" fill="hsl(240.8,65%,78%)" stroke="#374151" stroke-width="0.8"><title>b96</title></rect>
<rect x="612.139" y="584.126" width="28.014" height="74.703" fill="hsl(18.3,65%,78%)" stroke="#374151" stroke-width="0.8"><title>b97</title></rect>
<rect x="752.207" y="440.323" width="65.365" height="24.278" fill="hsl(155.8,65%,78%)" stroke="#374151" stroke-width="0.8"><title>b98</title></rect>
<rect x="670.034" y="882.937" width="31.749" height="74.703" fill="hsl(293.3,65%,78%)" stroke="#374151" stroke-width="0.8"><title>b99</title></rect>
<rect x="242.360" y="612.139" width="82.173" height="84.041" fill="hsl(70.8,65%,78%)" stroke="#374151" stroke-width="0.8"><title>b100</title></rect>
<rect x="828.778" y="677.504" width="56.027" height="67.233" fill="hsl(208.3,65%,78%)" stroke="#374151" stroke-width="0.8"><title>b101</title></rect>
<rect x="546.774" y="733.531" width="67.233" height="74.703" fill="hsl(345.8,65%,78%)" stroke="#374151" stroke-width="0.8"><title>b102</title></rect>
<rect x="935.229" y="692.445" width="63.497" height="63.497" fill="hsl(123.3,65%,78%)" stroke="#374151" stroke-width="0.8"><title>b103</title></rect>
<rect x="597.199" y="395.501" width="26.146" height="78.438" fill="hsl(260.8,65%,78%)" stroke="#374151" stroke-width="0.8"><title>b104</title></rect>
<rect x="897.878" y="477.674" width="61.630" height="65.365" fill="hsl(38.3,65%,78%)" stroke="#374151" stroke-width="0.8"><title>b105</title></rect>
<rect x="854.924" y="214.346" width="22.411" height="61.630" fill="hsl(175.8,65%,78%)" stroke="#374151" stroke-width="0.8"><title>b106</title></rect>
<rect x="877.334" y="218.081" width="28.014" height="59.762" fill="hsl(313.4,65%,78%)" stroke="#374151" stroke-width="0.8"><title>b107</title></rect>
<rect x="714.856" y="330.136" width="69.100" height="70.968" fill="hsl(90.9,65%,78%)" stroke="#374151" stroke-width="0.8"><title>b108</title></rect>
<rect x="251.698" y="76.146" width="78.438" height="85.908" fill="hsl(228.4,65%,78%)" stroke="#374151" stroke-width="0.8"><title>b109</title></rect>
<rect x="488.879" y="389.898" width="72.835" height="78.438" fill="hsl(5.9,65%,78%)" stroke="#374151" stroke-width="0.8"><title>b110</title></rect>
<rect x="1039.813" y="154.584" width="24.278" height="39.219" fill="hsl(143.4,65%,78%)" stroke="#374151" stroke-width="0.8"><title>b111</title></rect>
<rect x="925.891" y="78.014" width="46.689" height="56.027" fill="hsl(280.9,65%,78%)" stroke="#374151" stroke-width="0.8"><title>b112</title></rect>
<rect x="886.672" y="890.407" width="44.822" height="67.233" fill="hsl(58.4,65%,78%)" stroke="#374151" stroke-width="0.8"><title>b113</title></rect>
<rect x="352.547" y="195.671" width="63.497" height="82.173" fill="hsl(195.9,65%,78%)" stroke="#374151" stroke-width="0.8"><title>b114</title></rect>
<rect x="1105.178" y="894.143" width="41.087" height="63.497" fill="hsl(333.4,65%,78%)" stroke="#374151" stroke-width="0.8"><title>b115</title></rect>
<rect x="1073.430" y="572.920" width="52.292" height="35.484" fill="hsl(110.9,65%,78%)" stroke="#374151" stroke-width="0.8"><title>b116</title></rect>
<rect x="707.385" y="587.861" width="39.219" height="72.835" fill="hsl(248.4,65%,78%)" stroke="#374151" stroke-width="0.8"><title>b117</title></rect>
<rect x="346.944" y="277.844" width="70.968" height="82.173" fill="hsl(25.9,65%,78%)" stroke="#374151" stroke-width="0.8"><title>b118</title></rect>
<rect x="257.301" y="440.323" width="52.292" height="84.041" fill="hsl(163.5,65%,78%)" stroke="#374151" stroke-width="0.8"><title>b119</title></rect>
<rect x="752.207" y="464.601" width="67.233" height="67.233" fill="hsl(301.0,65%,78%)" stroke="#374151" stroke-width="0.8"><title>b120</title></rect>
<rect x="742.869" y="188.200" width="63.497" height="70.968" fill="hsl(78.5,65%,78%)" stroke="#374151" stroke-width="0.8"><title>b121</title></rect>
<rect x="509.423" y="714.856" width="37.351" height="80.306" fill="hsl(216.0,65%,78%)" stroke="#374151" stroke-width="0.8"><title>b122</title></rect>
<rect x="819.440" y="473.939" width="42.954" height="67.233" fill="hsl(353.5,65%,78%)" stroke="#374151" stroke-width="0.8"><title>b123</title></rect>
<rect x="884.805" y="755.942" width="57.895" height="65.365" fill="hsl(131.0,65%,78%)" stroke="#374151" stroke-width="0.8"><title>b124</title></rect>
<rect x="134.041" y="782.088" width="78.438" height="85.908" fill="hsl(268.5,65%,78%)" stroke="#374151" stroke-width="0.8"><title>b125</title></rect>
<rect x="946.435" y="225.552" width="41.087" height="22.411" fill="hsl(46.0,65%,78%)" stroke="#374151" stroke-width="0.8"><title>b126</title></rect>
<rect x="468.336" y="546.774" width="46.689" height="80.306" fill="hsl(183.5,65%,78%)" stroke="#374151" stroke-width="0.8"><title>b127</title></rect>
<rect x="401.104" y="875.467" width="52.292" height="82.173" fill="hsl(321.0,65%,78%)" stroke="#374151" stroke-width="0.8"><title>b128</title></rect>
<rect x="1041.681" y="869.864" width="63.497" height="41.087" fill="hsl(98.5,65%,78%)" stroke="#374151" stroke-width="0.8"><title>b129</title></rect>
<rect x="946.435" y="247.963" width="48.557" height="56.027" fill="hsl(236.0,65%,78%)" stroke="#374151" stroke-width="0.8"><title>b130</title></rect>
<rect x="50.000" y="778.353" width="84.041" height="89.643" fill="hsl(13.5,65%,78%)" stroke="#374151" stroke-width="0.8"><title>b131</title></rect>
<rect x="718.591" y="440.323" width="33.616" height="72.835" fill="hsl(151.1,65%,78%)" stroke="#374151" stroke-width="0.8"><title>b132</title></rect>
<rect x="457.131" y="305.857" width="28.014" height="80.306" fill="hsl(288.6,65%,78%)" stroke="#374151" stroke-width="0.8"><title>b133</title></rect>
<rect x="111.630" y="423.514" width="63.497" height="87.776" fill="hsl(66.1,65%,78%)" stroke="#374151" stroke-width="0.8"><title>b134</title></rect>
<rect x="300.255" y="188.200" width="28.014" height="84.041" fill="hsl(203.6,65%,78%)" stroke="#374151" stroke-width="0.8"><title>b135</title></rect>
<rect x="806.367" y="195.671" width="22.411" height="69.100" fill="hsl(341.1,65%,78%)" stroke="#374151" stroke-width="0.8"><title>b136</title></rect>
<rect x="1021.138" y="576.655" width="52.292" height="39.219" fill="hsl(118.6,65%,78%)" stroke="#374151" stroke-width="0.8"><title>b137</title></rect>
<rect x="556.112" y="473.939" width="52.292" height="78.438" fill="hsl(256.1,65%,78%)" stroke="#374151" stroke-width="0.8"><title>b138</title></rect>
<rect x="763.413" y="888.540" width="67.233" height="69.100" fill="hsl(33.6,65%,78%)" stroke="#374151" stroke-width="0.8"><title>b139</title></rect>
<rect x="485.144" y="305.857" width="22.411" height="80.306" fill="hsl(171.1,65%,78%)" stroke="#374151" stroke-width="0.8"><title>b140</title></rect>
<rect x="315.195" y="528.098" width="35.484" height="84.041" fill="hsl(308.6,65%,78%)" stroke="#374151" stroke-width="0.8"><title>b141</title></rect>
<rect x="778.353" y="675.637" width="50.424" height="69.100" fill="hsl(86.1,65%,78%)" stroke="#374151" stroke-width="0.8"><title>b142</title></rect>
<rect x="1021.138" y="352.547" width="46.689" height="44.822" fill="hsl(223.6,65%,78%)" stroke="#374151" stroke-width="0.8"><title>b143</title></rect>
<rect x="571.053" y="556.112" width="74.703" height="28.014" fill="hsl(1.2,65%,78%)" stroke="#374151" stroke-width="0.8"><title>b144</title></rect>
<rect x="300.255" y="163.922" width="84.041" height="24.278" fill="hsl(138.7,65%,78%)" stroke="#374151" stroke-width="0.8"><title>b145</title></rect>
<rect x="50.000" y="419.779" width="61.630" height="89.643" fill="hsl(276.2,65%,78%)" stroke="#374151" stroke-width="0.8"><title>b146</title></rect>
<rect x="515.025" y="552.377" width="56.027" height="78.438" fill="hsl(53.7,65%,78%)" stroke="#374151" stroke-width="0.8"><title>b147</title></rect>
<rect x="1095.840" y="165.789" width="37.351" height="33.616" fill="hsl(191.2,65%,78%)" stroke="#374151" stroke-width="0.8"><title>b148</title></rect>
<rect x="175.127" y="423.514" width="41.087" height="87.776" fill="hsl(328.7,65%,78%)" stroke="#374151" stroke-width="0.8"><title>b149</title></rect>
<rect x="890.407" y="160.187" width="42.954" height="57.895" fill="hsl(106.2,65%,78%)" stroke="#374151" stroke-width="0.8"><title>b150</title></rect>
<rect x="694.312" y="249.830" width="33.616" height="78.438" fill="hsl(243.7,65%,78%)" stroke="#374151" stroke-width="0.8"><title>b151</title></rect>
<rect x="1095.840" y="135.908" width="35.484" height="29.881" fill="hsl(21.2,65%,78%)" stroke="#374151" stroke-width="0.8"><title>b152</title></rect>
<rect x="686.842" y="165.789" width="56.027" height="76.570" fill="hsl(158.7,65%,78%)" stroke="#374151" stroke-width="0.8"><title>b153</title></rect>
<rect x="1056.621" y="221.817" width="41.087" height="31.749" fill="hsl(296.2,65%,78%)" stroke="#374151" stroke-width="0.8"><title>b154</title></rect>
<rect x="994.992" y="317.063" width="26.146" height="46.689" fill="hsl(73.7,65%,78%)" stroke="#374151" stroke-width="0.8"><title>b155</title></rect>
<rect x="991.256" y="632.683" width="29.881" height="52.292" fill="hsl(211.2,65%,78%)" stroke="#374151" stroke-width="0.8"><title>b156</title></rect>
<rect x="994.992" y="264.771" width="37.351" height="46.689" fill="hsl(348.8,65%,78%)" stroke="#374151" stroke-width="0.8"><title>b157</title></rect>
<rect x="1032.343" y="268.506" width="24.278" height="42.954" fill="hsl(126.3,65%,78%)" stroke="#374151" stroke-width="0.8"><title>b158</title></rect>
<rect x="354.414" y="621.477" width="59.762" height="82.173" fill="hsl(263.8,65%,78%)" stroke="#374151" stroke-width="0.8"><title>b159</title></rect>
<rect x="1071.562" y="498.217" width="50.424" height="29.881" fill="hsl(41.3,65%,78%)" stroke="#374151" stroke-width="0.8"><title>b160</title></rect>
<rect x="104.160" y="332.003" width="85.908" height="87.776" fill="hsl(178.8,65%,78%)" stroke="#374151" stroke-width="0.8"><title>b161</title></rect>
<rect x="912.818" y="360.017" width="33.616" height="57.895" fill="hsl(316.3,65%,78%)" stroke="#374151" stroke-width="0.8"><title>b162</title></rect>
<rect x="1064.092" y="718.591" width="61.630" height="41.087" fill="hsl(93.8,65%,78%)" stroke="#374151" stroke-width="0.8"><title>b163</title></rect>
<rect x="664.431" y="51.868" width="67.233" height="76.570" fill="hsl(231.3,65%,78%)" stroke="#374151" stroke-width="0.8"><title>b164</title></rect>
<rect x="1064.092" y="182.598" width="31.749" height="39.219" fill="hsl(8.8,65%,78%)" stroke="#374151" stroke-width="0.8"><title>b165</title></rect>
<rect x="817.572" y="397.368" width="63.497" height="67.233" fill="hsl(146.3,65%,78%)" stroke="#374151" stroke-width="0.8"><title>b166</title></rect>
<rect x="711.121" y="670.034" width="67.233" height="69.100" fill="hsl(283.8,65%,78%)" stroke="#374151" stroke-width="0.8"><title>b167</title></rect>
<rect x="731.664" y="89.219" width="44.822" height="76.570" fill="hsl(61.3,65%,78%)" stroke="#374151" stroke-width="0.8"><title>b168</title></rect>
<rect x="658.829" y="513.158" width="44.822" height="72.835" fill="hsl(198.9,65%,78%)" stroke="#374151" stroke-width="0.8"><title>b169</title></rect>
<rect x="346.944" y="873.599" width="54.160" height="84.041" fill="hsl(336.4,65%,78%)" stroke="#374151" stroke-width="0.8"><title>b170</title></rect>
<rect x="628.947" y="882.937" width="41.087" height="74.703" fill="hsl(113.9,65%,78%)" stroke="#374151" stroke-width="0.8"><title>b171</title></rect>
<rect x="1125.722" y="718.591" width="24.278" height="50.424" fill="hsl(251.4,65%,78%)" stroke="#374151" stroke-width="0.8"><title>b172</title></rect>
<rect x="860.526" y="277.844" width="46.689" height="59.762" fill="hsl(28.9,65%,78%)" stroke="#374151" stroke-width="0.8"><title>b173</title></rect>
<rect x="333.871" y="51.868" width="80.306" height="29.881" fill="hsl(166.4,65%,78%)" stroke="#374151" stroke-width="0.8"><title>b174</title></rect>
<rect x="776.486" y="89.219" width="29.881" height="28.014" fill="hsl(303.9,65%,78%)" stroke="#374151" stroke-width="0.8"><title>b175</title></rect>
<rect x="806.367" y="55.603" width="70.968" height="61.630" fill="hsl(81.4,65%,78%)" stroke="#374151" stroke-width="0.8"><title>b176</title></rect>
<rect x="563.582" y="205.008" width="69.100" height="76.570" fill="hsl(218.9,65%,78%)" stroke="#374151" stroke-width="0.8"><title>b177</title></rect>
<rect x="1011.800" y="122.835" width="35.484" height="31.749" fill="hsl(356.4,65%,78%)" stroke="#374151" stroke-width="0.8"><title>b178</title></rect>
<rect x="134.041" y="696.180" width="63.497" height="85.908" fill="hsl(133.9,65%,78%)" stroke="#374151" stroke-width="0.8"><title>b179</title></rect>
<rect x="608.404" y="658.829" width="35.484" height="74.703" fill="hsl(271.4,65%,78%)" stroke="#374151" stroke-width="0.8"><title>b180</title></rect>
<rect x="942.699" y="303.990" width="52.292" height="56.027" fill="hsl(48.9,65%,78%)" stroke="#374151" stroke-width="0.8"><title>b181</title></rect>
<rect x="231.154" y="272.241" width="44.822" height="84.041" fill="hsl(186.5,65%,78%)" stroke="#374151" stroke-width="0.8"><title>b182</title></rect>
<rect x="701.783" y="884.805" width="61.630" height="72.835" fill="hsl(324.0,65%,78%)" stroke="#374151" stroke-width="0.8"><title>b183</title></rect>
<rect x="195.671" y="610.272" width="46.689" height="85.908" fill="hsl(101.5,65%,78%)" stroke="#374151" stroke-width="0.8"><title>b184</title></rect>
<rect x="940.832" y="628.947" width="50.424" height="63.497" fill="hsl(239.0,65%,78%)" stroke="#374151" stroke-width="0.8"><title>b185</title></rect>
<rect x="1041.681" y="811.969" width="61.630" height="57.895" fill="hsl(16.5,65%,78%)" stroke="#374151" stroke-width="0.8"><title>b186</title></rect>
<rect x="727.929" y="259.168" width="67.233" height="70.968" fill="hsl(154.0,65%,78%)" stroke="#374151" stroke-width="0.8"><title>b187</title></rect>
<rect x="511.290" y="808.234" width="69.100" height="74.703" fill="hsl(291.5,65%,78%)" stroke="#374151" stroke-width="0.8"><title>b188</title></rect>
<rect x="251.698" y="53.735" width="82.173" height="22.411" fill="hsl(69.0,65%,78%)" stroke="#374151" stroke-width="0.8"><title>b189</title></rect>
<rect x="748.472" y="531.834" width="50.424" height="69.100" fill="hsl(206.5,65%,78%)" stroke="#374151" stroke-width="0.8"><title>b190</title></rect>
<rect x="1011.800" y="830.645" width="29.881" height="63.497" fill="hsl(344.0,65%,78%)" stroke="#374151" stroke-width="0.8"><title>b191</title></rect>
<rect x="50.000" y="330.136" width="54.160" height="89.643" fill="hsl(121.5,65%,78%)" stroke="#374151" stroke-width="0.8"><title>b192</title></rect>
<rect x="998.727" y="684.975" width="61.630" height="31.749" fill="hsl(259.0,65%,78%)" stroke="#374151" stroke-width="0.8"><title>b193</title></rect>
<rect x="1125.722" y="556.112" width="24.278" height="52.292" fill="hsl(36.6,65%,78%)" stroke="#374151" stroke-width="0.8"><title>b194</title></rect>
<rect x="1125.722" y="769.015" width="24.278" height="61.630" fill="hsl(174.1,65%,78%)" stroke="#374151" stroke-width="0.8"><title>b195</title></rect>
<rect x="541.171" y="122.835" width="76.570" height="76.570" fill="hsl(311.6,65%,78%)" stroke="#374151" stroke-width="0.8"><title>b196</title></rect>
<rect x="746.604" y="600.934" width="52.292" height="69.100" fill="hsl(89.1,65%,78%)" stroke="#374151" stroke-width="0.8"><title>b197</title></rect>
<rect x="100.424" y="240.492" width="35.484" height="89.643" fill="hsl(226.6,65%,78%)" stroke="#374151" stroke-width="0.8"><title>b198</title></rect>
<rect x="798.896" y="608.404" width="57.895" height="67.233" fill="hsl(4.1,65%,78%)" stroke="#374151" stroke-width="0.8"><title>b199</title></rect>
<rect x="414.177" y="627.080" width="69.100" height="80.306" fill="hsl(141.6,65%,78%)" stroke="#374151" stroke-width="0.8"><title>b200</title></rect>
<rect x="1077.165" y="608.404" width="54.160" height="48.557" fill="hsl(279.1,65%,78%)" stroke="#374151" stroke-width="0.8"><title>b201</title></rect>
<rect x="647.623" y="735.399" width="63.497" height="72.835" fill="hsl(56.6,65%,78%)" stroke="#374151" stroke-width="0.8"><title>b202</title></rect>
<rect x="987.521" y="163.922" width="52.292" height="28.014" fill="hsl(194.1,65%,78%)" stroke="#374151" stroke-width="0.8"><title>b203</title></rect>
<rect x="632.683" y="242.360" width="61.630" height="76.570" fill="hsl(331.6,65%,78%)" stroke="#374151" stroke-width="0.8"><title>b204</title></rect>
<rect x="1121.986" y="468.336" width="28.014" height="39.219" fill="hsl(109.1,65%,78%)" stroke="#374151" stroke-width="0.8"><title>b205</title></rect>
<rect x="458.998" y="199.406" width="65.365" height="78.438" fill="hsl(246.6,65%,78%)" stroke="#374151" stroke-width="0.8"><title>b206</title></rect>
<rect x="1064.092" y="759.677" width="61.630" height="52.292" fill="hsl(24.2,65%,78%)" stroke="#374151" stroke-width="0.8"><title>b207</title></rect>
<rect x="1021.138" y="503.820" width="50.424" height="37.351" fill="hsl(161.7,65%,78%)" stroke="#374151" stroke-width="0.8"><title>b208</title></rect>
<rect x="322.666" y="703.650" width="67.233" height="84.041" fill="hsl(299.2,65%,78%)" stroke="#374151" stroke-width="0.8"><title>b209</title></rect>
<rect x="1077.165" y="660.696" width="44.822" height="24.278" fill="hsl(76.7,65%,78%)" stroke="#374151" stroke-width="0.8"><title>b210</title></rect>
<rect x="742.869" y="165.789" width="29.881" height="22.411" fill="hsl(214.2,65%,78%)" stroke="#374151" stroke-width="0.8"><title>b211</title></rect>
<rect x="501.952" y="120.968" width="39.219" height="78.438" fill="hsl(351.7,65%,78%)" stroke="#374151" stroke-width="0.8"><title>b212</title></rect>
<rect x="839.983" y="130.306" width="26.146" height="59.762" fill="hsl(129.2,65%,78%)" stroke="#374151" stroke-width="0.8"><title>b213</title></rect>
<rect x="959.508" y="432.852" width="31.749" height="50.424" fill="hsl(266.7,65%,78%)" stroke="#374151" stroke-width="0.8"><title>b214</title></rect>
<rect x="1021.138" y="615.874" width="54.160" height="39.219" fill="hsl(44.2,65%,78%)" stroke="#374151" stroke-width="0.8"><title>b215</title></rect>
<rect x="561.715" y="395.501" width="35.484" height="78.438" fill="hsl(181.7,65%,78%)" stroke="#374151" stroke-width="0.8"><title>b216</title></rect>
<rect x="94.822" y="150.849" width="37.351" height="89.643" fill="hsl(319.2,65%,78%)" stroke="#374151" stroke-width="0.8"><title>b217</title></rect>
<rect x="457.131" y="277.844" width="80.306" height="28.014" fill="hsl(96.7,65%,78%)" stroke="#374151" stroke-width="0.8"><title>b218</title></rect>
<rect x="959.508" y="516.893" width="52.292" height="33.616" fill="hsl(234.3,65%,78%)" stroke="#374151" stroke-width="0.8"><title>b219</title></rect>
<rect x="830.645" y="888.540" width="56.027" height="69.100" fill="hsl(11.8,65%,78%)" stroke="#374151" stroke-width="0.8"><title>b220</title></rect>
<rect x="328.268" y="188.200" width="24.278" height="84.041" fill="hsl(149.3,65%,78%)" stroke="#374151" stroke-width="0.8"><title>b221</title></rect>
<rect x="1041.681" y="910.951" width="63.497" height="46.689" fill="hsl(286.8,65%,78%)" stroke="#374151" stroke-width="0.8"><title>b222</title></rect>
<rect x="1110.781" y="272.241" width="35.484" height="41.087" fill="hsl(64.3,65%,78%)" stroke="#374151" stroke-width="0.8"><title>b223</title></rect>
<rect x="298.387" y="356.282" width="39.219" height="84.041" fill="hsl(201.8,65%,78%)" stroke="#374151" stroke-width="0.8"><title>b224</title></rect>
<rect x="180.730" y="64.941" width="70.968" height="87.776" fill="hsl(339.3,65%,78%)" stroke="#374151" stroke-width="0.8"><title>b225</title></rect>
<rect x="684.975" y="328.268" width="29.881" height="72.835" fill="hsl(116.8,65%,78%)" stroke="#374151" stroke-width="0.8"><title>b226</title></rect>
<rect x="866.129" y="130.306" width="24.278" height="59.762" fill="hsl(254.3,65%,78%)" stroke="#374151" stroke-width="0.8"><title>b227</title></rect>
<rect x="1105.178" y="234.890" width="39.219" height="37.351" fill="hsl(31.8,65%,78%)" stroke="#374151" stroke-width="0.8"><title>b228</title></rect>
<rect x="50.000" y="150.849" width="44.822" height="89.643" fill="hsl(169.3,65%,78%)" stroke="#374151" stroke-width="0.8"><title>b229</title></rect>
<rect x="1002.462" y="755.942" width="61.630" height="56.027" fill="hsl(306.8,65%,78%)" stroke="#374151" stroke-width="0.8"><title>b230</title></rect>
<rect x="1021.138" y="655.093" width="56.027" height="29.881" fill="hsl(84.3,65%,78%)" stroke="#374151" stroke-width="0.8"><title>b231</title></rect>
<rect x="507.555" y="311.460" width="42.954" height="78.438" fill="hsl(221.9,65%,78%)" stroke="#374151" stroke-width="0.8"><title>b232</title></rect>
<rect x="948.302" y="134.041" width="24.278" height="29.881" fill="hsl(359.4,65%,78%)" stroke="#374151" stroke-width="0.8"><title>b233</title></rect>
<rect x="1060.357" y="684.975" width="61.630" height="33.616" fill="hsl(136.9,65%,78%)" stroke="#374151" stroke-width="0.8"><title>b234</title></rect>
<rect x="216.214" y="438.455" width="41.087" height="85.908" fill="hsl(274.4,65%,78%)" stroke="#374151" stroke-width="0.8"><title>b235</title></rect>
<rect x="608.404" y="483.277" width="50.424" height="72.835" fill="hsl(51.9,65%,78%)" stroke="#374151" stroke-width="0.8"><title>b236</title></rect>
<rect x="731.664" y="50.000" width="74.703" height="39.219" fill="hsl(189.4,65%,78%)" stroke="#374151" stroke-width="0.8"><title>b237</title></rect>
<rect x="623.345" y="410.441" width="50.424" height="72.835" fill="hsl(326.9,65%,78%)" stroke="#374151" stroke-width="0.8"><title>b238</title></rect>
<rect x="567.317" y="658.829" width="41.087" height="74.703" fill="hsl(104.4,65%,78%)" stroke="#374151" stroke-width="0.8"><title>b239</title></rect>
<rect x="1021.138" y="221.817" width="35.484" height="42.954" fill="hsl(241.9,65%,78%)" stroke="#374151" stroke-width="0.8"><title>b240</title></rect>
<rect x="384.295" y="171.392" width="44.822" height="24.278" fill="hsl(19.4,65%,78%)" stroke="#374151" stroke-width="0.8"><title>b241</title></rect>
<rect x="571.053" y="584.126" width="41.087" height="74.703" fill="hsl(156.9,65%,78%)" stroke="#374151" stroke-width="0.8"><title>b242</title></rect>
<rect x="769.015" y="744.737" width="63.497" height="69.100" fill="hsl(294.4,65%,78%)" stroke="#374151" stroke-width="0.8"><title>b243</title></rect>
<rect x="231.154" y="247.963" width="69.100" height="24.278" fill="hsl(72.0,65%,78%)" stroke="#374151" stroke-width="0.8"><title>b244</title></rect>
<rect x="798.896" y="541.171" width="44.822" height="67.233" fill="hsl(209.5,65%,78%)" stroke="#374151" stroke-width="0.8"><title>b245</title></rect>
<rect x="416.044" y="195.671" width="42.954" height="82.173" fill="hsl(347.0,65%,78%)" stroke="#374151" stroke-width="0.8"><title>b246</title></rect>
<rect x="640.153" y="585.993" width="67.233" height="72.835" fill="hsl(124.5,65%,78%)" stroke="#374151" stroke-width="0.8"><title>b247</title></rect>
<rect x="453.396" y="877.334" width="57.895" height="80.306" fill="hsl(262.0,65%,78%)" stroke="#374151" stroke-width="0.8"><title>b248</title></rect>
<rect x="884.805" y="690.577" width="50.424" height="65.365" fill="hsl(39.5,65%,78%)" stroke="#374151" stroke-width="0.8"><title>b249</title></rect>
<rect x="953.905" y="828.778" width="57.895" height="63.497" fill="hsl(177.0,65%,78%)" stroke="#374151" stroke-width="0.8"><title>b250</title></rect>
<rect x="429.117" y="51.868" width="80.306" height="63.497" fill="hsl(314.5,65%,78%)" stroke="#374151" stroke-width="0.8"><title>b251</title></rect>
<rect x="1021.138" y="541.171" width="52.292" height="35.484" fill="hsl(92.0,65%,78%)" stroke="#374151" stroke-width="0.8"><title>b252</title></rect>
<rect x="1082.767" y="111.630" width="28.014" height="24.278" fill="hsl(229.5,65%,78%)" stroke="#374151" stroke-width="0.8"><title>b253</title></rect>
<rect x="996.859" y="388.031" width="24.278" height="44.822" fill="hsl(7.0,65%,78%)" stroke="#374151" stroke-width="0.8"><title>b254</title></rect>
<rect x="135.908" y="244.228" width="72.835" height="87.776" fill="hsl(144.5,65%,78%)" stroke="#374151" stroke-width="0.8"><title>b255</title></rect>
<rect x="931.494" y="53.735" width="39.219" height="24.278" fill="hsl(282.0,65%,78%)" stroke="#374151" stroke-width="0.8"><title>b256</title></rect>
<rect x="828.778" y="275.976" width="31.749" height="61.630" fill="hsl(59.6,65%,78%)" stroke="#374151" stroke-width="0.8"><title>b257</title></rect>
<rect x="350.679" y="537.436" width="63.497" height="82.173" fill="hsl(197.1,65%,78%)" stroke="#374151" stroke-width="0.8"><title>b258</title></rect>
<rect x="1071.562" y="404.839" width="48.557" height="22.411" fill="hsl(334.6,65%,78%)" stroke="#374151" stroke-width="0.8"><title>b259</title></rect>
<rect x="610.272" y="281.579" width="22.411" height="35.484" fill="hsl(112.1,65%,78%)" stroke="#374151" stroke-width="0.8"><title>b260</title></rect>
<rect x="337.606" y="360.017" width="22.411" height="84.041" fill="hsl(249.6,65%,78%)" stroke="#374151" stroke-width="0.8"><title>b261</title></rect>
<rect x="50.000" y="240.492" width="50.424" height="89.643" fill="hsl(27.1,65%,78%)" stroke="#374151" stroke-width="0.8"><title>b262</title></rect>
<rect x="94.822" y="63.073" width="85.908" height="87.776" fill="hsl(164.6,65%,78%)" stroke="#374151" stroke-width="0.8"><title>b263</title></rect>
<rect x="275.976" y="272.241" width="42.954" height="84.041" fill="hsl(302.1,65%,78%)" stroke="#374151" stroke-width="0.8"><title>b264</title></rect>
<rect x="318.930" y="272.241" width="28.014" height="84.041" fill="hsl(79.6,65%,78%)" stroke="#374151" stroke-width="0.8"><title>b265</title></rect>
<rect x="50.000" y="688.710" width="84.041" height="89.643" fill="hsl(217.1,65%,78%)" stroke="#374151" stroke-width="0.8"><title>b266</title></rect>
<rect x="673.769" y="810.102" width="63.497" height="72.835" fill="hsl(354.6,65%,78%)" stroke="#374151" stroke-width="0.8"><title>b267</title></rect>
<rect x="1021.138" y="311.460" width="46.689" height="41.087" fill="hsl(132.1,65%,78%)" stroke="#374151" stroke-width="0.8"><title>b268</title></rect>
<rect x="783.956" y="333.871" width="33.616" height="69.100" fill="hsl(269.7,65%,78%)" stroke="#374151" stroke-width="0.8"><title>b269</title></rect>
<rect x="1021.138" y="193.803" width="42.954" height="28.014" fill="hsl(47.2,65%,78%)" stroke="#374151" stroke-width="0.8"><title>b270</title></rect>
<rect x="522.496" y="636.418" width="44.822" height="78.438" fill="hsl(184.7,65%,78%)" stroke="#374151" stroke-width="0.8"><title>b271</title></rect>
<rect x="896.010" y="625.212" width="44.822" height="65.365" fill="hsl(322.2,65%,78%)" stroke="#374151" stroke-width="0.8"><title>b272</title></rect>
<rect x="972.581" y="107.895" width="39.219" height="56.027" fill="hsl(99.7,65%,78%)" stroke="#374151" stroke-width="0.8"><title>b273</title></rect>
<rect x="998.727" y="716.723" width="61.630" height="39.219" fill="hsl(237.2,65%,78%)" stroke="#374151" stroke-width="0.8"><title>b274</title></rect>
<rect x="966.978" y="587.861" width="52.292" height="41.087" fill="hsl(14.7,65%,78%)" stroke="#374151" stroke-width="0.8"><title>b275</title></rect>
<rect x="890.407" y="134.041" width="57.895" height="26.146" fill="hsl(152.2,65%,78%)" stroke="#374151" stroke-width="0.8"><title>b276</title></rect>
<rect x="208.744" y="247.963" width="22.411" height="87.776" fill="hsl(289.7,65%,78%)" stroke="#374151" stroke-width="0.8"><title>b277</title></rect>
<rect x="509.423" y="96.689" width="78.438" height="24.278" fill="hsl(67.2,65%,78%)" stroke="#374151" stroke-width="0.8"><title>b278</title></rect>
<rect x="429.117" y="115.365" width="72.835" height="80.306" fill="hsl(204.7,65%,78%)" stroke="#374151" stroke-width="0.8"><title>b279</title></rect>
<rect x="905.348" y="219.949" width="41.087" height="57.895" fill="hsl(342.2,65%,78%)" stroke="#374151" stroke-width="0.8"><title>b280</title></rect>
<rect x="987.521" y="191.935" width="33.616" height="56.027" fill="hsl(119.7,65%,78%)" stroke="#374151" stroke-width="0.8"><title>b281</title></rect>
<rect x="389.898" y="707.385" width="56.027" height="82.173" fill="hsl(257.3,65%,78%)" stroke="#374151" stroke-width="0.8"><title>b282</title></rect>
<rect x="1110.781" y="111.630" width="28.014" height="24.278" fill="hsl(34.8,65%,78%)" stroke="#374151" stroke-width="0.8"><title>b283</title></rect>
<rect x="972.581" y="51.868" width="39.219" height="56.027" fill="hsl(172.3,65%,78%)" stroke="#374151" stroke-width="0.8"><title>b284</title></rect>
<rect x="828.778" y="190.068" width="61.630" height="24.278" fill="hsl(309.8,65%,78%)" stroke="#374151" stroke-width="0.8"><title>b285</title></rect>
<rect x="617.742" y="318.930" width="67.233" height="76.570" fill="hsl(87.3,65%,78%)" stroke="#374151" stroke-width="0.8"><title>b286</title></rect>
<rect x="524.363" y="199.406" width="39.219" height="78.438" fill="hsl(224.8,65%,78%)" stroke="#374151" stroke-width="0.8"><title>b287</title></rect>
<rect x="832.513" y="752.207" width="52.292" height="67.233" fill="hsl(2.3,65%,78%)" stroke="#374151" stroke-width="0.8"><title>b288</title></rect>
<rect x="787.691" y="819.440" width="61.630" height="69.100" fill="hsl(139.8,65%,78%)" stroke="#374151" stroke-width="0.8"><title>b289</title></rect>
<rect x="1021.138" y="473.939" width="50.424" height="29.881" fill="hsl(277.3,65%,78%)" stroke="#374151" stroke-width="0.8"><title>b290</title></rect>
<rect x="429.117" y="466.469" width="52.292" height="80.306" fill="hsl(54.8,65%,78%)" stroke="#374151" stroke-width="0.8"><title>b291</title></rect>
<rect x="673.769" y="440.323" width="44.822" height="72.835" fill="hsl(192.3,65%,78%)" stroke="#374151" stroke-width="0.8"><title>b292</title></rect>
<rect x="429.117" y="386.163" width="35.484" height="80.306" fill="hsl(329.8,65%,78%)" stroke="#374151" stroke-width="0.8"><title>b293</title></rect>
<rect x="1039.813" y="397.368" width="31.749" height="48.557" fill="hsl(107.4,65%,78%)" stroke="#374151" stroke-width="0.8"><title>b294</title></rect>
<rect x="464.601" y="386.163" width="24.278" height="80.306" fill="hsl(244.9,65%,78%)" stroke="#374151" stroke-width="0.8"><title>b295</title></rect>
<rect x="1071.562" y="468.336" width="50.424" height="29.881" fill="hsl(22.4,65%,78%)" stroke="#374151" stroke-width="0.8"><title>b296</title></rect>
<rect x="711.121" y="739.134" width="57.895" height="70.968" fill="hsl(159.9,65%,78%)" stroke="#374151" stroke-width="0.8"><title>b297</title></rect>
<rect x="580.390" y="808.234" width="61.630" height="74.703" fill="hsl(297.4,65%,78%)" stroke="#374151" stroke-width="0.8"><title>b298</title></rect>
<rect x="996.859" y="363.752" width="24.278" height="24.278" fill="hsl(74.9,65%,78%)" stroke="#374151" stroke-width="0.8"><title>b299</title></rect>
<text x="50" y="1182" font-family="sans-serif" font-size="14" fill="#111827">589 × 486; area=286254; aspect=1.2119; dead-space=4.7897%</text>
</svg>
