<?xml version="1.0" encoding="UTF-8"?>
<svg xmlns="http://www.w3.org/2000/svg" width="1200" height="1200" viewBox="0 0 1200 1200">
<rect width="100%" height="100%" fill="white"/>
<rect x="50" y="50" width="1100.000" height="12.413" fill="none" stroke="#111827" stroke-width="2"/>
<rect x="832.809" y="50.000" width="4.226" height="9.508" fill="hsl(0.0,65%,78%)" stroke="#374151" stroke-width="0.8"><title>b0</title></rect>
<rect x="651.897" y="50.000" width="5.018" height="10.300" fill="hsl(137.5,65%,78%)" stroke="#374151" stroke-width="0.8"><title>b1</title></rect>
<rect x="548.367" y="50.000" width="9.244" height="10.828" fill="hsl(275.0,65%,78%)" stroke="#374151" stroke-width="0.8"><title>b2</title></rect>
<rect x="113.385" y="57.395" width="12.413" height="4.754" fill="hsl(52.5,65%,78%)" stroke="#374151" stroke-width="0.8"><title>b3</title></rect>
<rect x="1008.439" y="50.000" width="6.867" height="8.451" fill="hsl(190.0,65%,78%)" stroke="#374151" stroke-width="0.8"><title>b4</title></rect>
<rect x="859.748" y="50.000" width="8.187" height="9.244" fill="hsl(327.5,65%,78%)" stroke="#374151" stroke-width="0.8"><title>b5</title></rect>
<rect x="951.657" y="58.715" width="7.659" height="3.433" fill="hsl(105.0,65%,78%)" stroke="#374151" stroke-width="0.8"><title>b6</title></rect>
<rect x="1086.879" y="50.000" width="5.546" height="7.395" fill="hsl(242.6,65%,78%)" stroke="#374151" stroke-width="0.8"><title>b7</title></rect>
<rect x="992.857" y="58.451" width="8.451" height="3.962" fill="hsl(20.1,65%,78%)" stroke="#374151" stroke-width="0.8"><title>b8</title></rect>
<rect x="208.463" y="50.000" width="8.980" height="12.149" fill="hsl(157.6,65%,78%)" stroke="#374151" stroke-width="0.8"><title>b9</title></rect>
<rect x="281.357" y="50.000" width="8.451" height="11.885" fill="hsl(295.1,65%,78%)" stroke="#374151" stroke-width="0.8"><title>b10</title></rect>
<rect x="837.035" y="50.000" width="3.697" height="9.508" fill="hsl(72.6,65%,78%)" stroke="#374151" stroke-width="0.8"><title>b11</title></rect>
<rect x="480.756" y="50.000" width="9.508" height="11.092" fill="hsl(210.1,65%,78%)" stroke="#374151" stroke-width="0.8"><title>b12</title></rect>
<rect x="62.677" y="50.000" width="12.677" height="11.885" fill="hsl(347.6,65%,78%)" stroke="#374151" stroke-width="0.8"><title>b13</title></rect>
<rect x="1008.439" y="58.451" width="6.603" height="3.962" fill="hsl(125.1,65%,78%)" stroke="#374151" stroke-width="0.8"><title>b14</title></rect>
<rect x="163.301" y="50.000" width="11.885" height="12.149" fill="hsl(262.6,65%,78%)" stroke="#374151" stroke-width="0.8"><title>b15</title></rect>
<rect x="683.589" y="55.810" width="4.754" height="5.810" fill="hsl(40.1,65%,78%)" stroke="#374151" stroke-width="0.8"><title>b16</title></rect>
<rect x="975.162" y="50.000" width="6.867" height="8.715" fill="hsl(177.6,65%,78%)" stroke="#374151" stroke-width="0.8"><title>b17</title></rect>
<rect x="925.510" y="50.000" width="8.980" height="5.018" fill="hsl(315.1,65%,78%)" stroke="#374151" stroke-width="0.8"><title>b18</title></rect>
<rect x="959.844" y="58.715" width="7.923" height="3.169" fill="hsl(92.7,65%,78%)" stroke="#374151" stroke-width="0.8"><title>b19</title></rect>
<rect x="967.767" y="50.000" width="7.395" height="8.715" fill="hsl(230.2,65%,78%)" stroke="#374151" stroke-width="0.8"><title>b20</title></rect>
<rect x="341.309" y="50.000" width="10.300" height="11.621" fill="hsl(7.7,65%,78%)" stroke="#374151" stroke-width="0.8"><title>b21</title></rect>
<rect x="645.030" y="50.000" width="6.867" height="10.300" fill="hsl(145.2,65%,78%)" stroke="#374151" stroke-width="0.8"><title>b22</title></rect>
<rect x="604.886" y="50.000" width="6.603" height="10.564" fill="hsl(282.7,65%,78%)" stroke="#374151" stroke-width="0.8"><title>b23</title></rect>
<rect x="1001.309" y="58.451" width="6.603" height="3.962" fill="hsl(60.2,65%,78%)" stroke="#374151" stroke-width="0.8"><title>b24</title></rect>
<rect x="774.178" y="50.000" width="9.508" height="9.508" fill="hsl(197.7,65%,78%)" stroke="#374151" stroke-width="0.8"><title>b25</title></rect>
<rect x="444.838" y="50.000" width="6.603" height="11.357" fill="hsl(335.2,65%,78%)" stroke="#374151" stroke-width="0.8"><title>b26</title></rect>
<rect x="882.197" y="50.000" width="3.962" height="8.980" fill="hsl(112.7,65%,78%)" stroke="#374151" stroke-width="0.8"><title>b27</title></rect>
<rect x="198.427" y="50.000" width="10.036" height="12.149" fill="hsl(250.2,65%,78%)" stroke="#374151" stroke-width="0.8"><title>b28</title></rect>
<rect x="771.008" y="50.000" width="3.169" height="9.772" fill="hsl(27.7,65%,78%)" stroke="#374151" stroke-width="0.8"><title>b29</title></rect>
<rect x="1114.346" y="50.000" width="4.490" height="7.131" fill="hsl(165.2,65%,78%)" stroke="#374151" stroke-width="0.8"><title>b30</title></rect>
<rect x="759.124" y="50.000" width="4.226" height="9.772" fill="hsl(302.7,65%,78%)" stroke="#374151" stroke-width="0.8"><title>b31</title></rect>
<rect x="1015.306" y="50.000" width="6.074" height="8.451" fill="hsl(80.3,65%,78%)" stroke="#374151" stroke-width="0.8"><title>b32</title></rect>
<rect x="828.055" y="50.000" width="4.754" height="9.508" fill="hsl(217.8,65%,78%)" stroke="#374151" stroke-width="0.8"><title>b33</title></rect>
<rect x="1123.061" y="57.395" width="10.036" height="5.018" fill="hsl(355.3,65%,78%)" stroke="#374151" stroke-width="0.8"><title>b34</title></rect>
<rect x="988.896" y="50.000" width="3.962" height="8.715" fill="hsl(132.8,65%,78%)" stroke="#374151" stroke-width="0.8"><title>b35</title></rect>
<rect x="967.767" y="58.715" width="7.395" height="3.169" fill="hsl(270.3,65%,78%)" stroke="#374151" stroke-width="0.8"><title>b36</title></rect>
<rect x="1041.453" y="58.187" width="5.546" height="4.226" fill="hsl(47.8,65%,78%)" stroke="#374151" stroke-width="0.8"><title>b37</title></rect>
<rect x="982.029" y="50.000" width="6.867" height="8.715" fill="hsl(185.3,65%,78%)" stroke="#374151" stroke-width="0.8"><title>b38</title></rect>
<rect x="516.146" y="50.000" width="7.923" height="11.092" fill="hsl(322.8,65%,78%)" stroke="#374151" stroke-width="0.8"><title>b39</title></rect>
<rect x="566.327" y="50.000" width="7.395" height="10.828" fill="hsl(100.3,65%,78%)" stroke="#374151" stroke-width="0.8"><title>b40</title></rect>
<rect x="1052.281" y="58.187" width="4.226" height="4.226" fill="hsl(237.8,65%,78%)" stroke="#374151" stroke-width="0.8"><title>b41</title></rect>
<rect x="374.850" y="50.000" width="5.018" height="11.621" fill="hsl(15.3,65%,78%)" stroke="#374151" stroke-width="0.8"><title>b42</title></rect>
<rect x="587.719" y="50.000" width="8.980" height="10.564" fill="hsl(152.8,65%,78%)" stroke="#374151" stroke-width="0.8"><title>b43</title></rect>
<rect x="1123.061" y="50.000" width="4.226" height="7.131" fill="hsl(290.4,65%,78%)" stroke="#374151" stroke-width="0.8"><title>b44</title></rect>
<rect x="767.311" y="50.000" width="3.697" height="9.772" fill="hsl(67.9,65%,78%)" stroke="#374151" stroke-width="0.8"><title>b45</title></rect>
<rect x="113.385" y="50.000" width="12.677" height="3.962" fill="hsl(205.4,65%,78%)" stroke="#374151" stroke-width="0.8"><title>b46</title></rect>
<rect x="975.162" y="58.715" width="6.074" height="3.697" fill="hsl(342.9,65%,78%)" stroke="#374151" stroke-width="0.8"><title>b47</title></rect>
<rect x="1127.287" y="50.000" width="6.339" height="6.867" fill="hsl(120.4,65%,78%)" stroke="#374151" stroke-width="0.8"><title>b48</title></rect>
<rect x="596.699" y="50.000" width="8.187" height="10.564" fill="hsl(257.9,65%,78%)" stroke="#374151" stroke-width="0.8"><title>b49</title></rect>
<rect x="499.244" y="50.000" width="8.715" height="11.092" fill="hsl(35.4,65%,78%)" stroke="#374151" stroke-width="0.8"><title>b50</title></rect>
<rect x="100.708" y="50.000" width="12.677" height="7.131" fill="hsl(172.9,65%,78%)" stroke="#374151" stroke-width="0.8"><title>b51</title></rect>
<rect x="719.508" y="50.000" width="7.131" height="9.772" fill="hsl(310.4,65%,78%)" stroke="#374151" stroke-width="0.8"><title>b52</title></rect>
<rect x="1069.712" y="57.659" width="4.490" height="4.754" fill="hsl(87.9,65%,78%)" stroke="#374151" stroke-width="0.8"><title>b53</title></rect>
<rect x="456.987" y="50.000" width="4.226" height="11.357" fill="hsl(225.4,65%,78%)" stroke="#374151" stroke-width="0.8"><title>b54</title></rect>
<rect x="236.723" y="50.000" width="3.433" height="12.149" fill="hsl(2.9,65%,78%)" stroke="#374151" stroke-width="0.8"><title>b55</title></rect>
<rect x="1137.851" y="50.000" width="5.810" height="6.603" fill="hsl(140.4,65%,78%)" stroke="#374151" stroke-width="0.8"><title>b56</title></rect>
<rect x="100.708" y="57.395" width="12.677" height="5.018" fill="hsl(278.0,65%,78%)" stroke="#374151" stroke-width="0.8"><title>b57</title></rect>
<rect x="573.721" y="50.000" width="5.018" height="10.828" fill="hsl(55.5,65%,78%)" stroke="#374151" stroke-width="0.8"><title>b58</title></rect>
<rect x="151.152" y="50.000" width="12.149" height="12.149" fill="hsl(193.0,65%,78%)" stroke="#374151" stroke-width="0.8"><title>b59</title></rect>
<rect x="867.935" y="50.000" width="7.923" height="9.244" fill="hsl(330.5,65%,78%)" stroke="#374151" stroke-width="0.8"><title>b60</title></rect>
<rect x="901.477" y="50.000" width="8.715" height="8.980" fill="hsl(108.0,65%,78%)" stroke="#374151" stroke-width="0.8"><title>b61</title></rect>
<rect x="262.605" y="50.000" width="9.772" height="11.885" fill="hsl(245.5,65%,78%)" stroke="#374151" stroke-width="0.8"><title>b62</title></rect>
<rect x="1092.425" y="58.451" width="9.244" height="3.962" fill="hsl(23.0,65%,78%)" stroke="#374151" stroke-width="0.8"><title>b63</title></rect>
<rect x="50.000" y="50.000" width="12.677" height="12.413" fill="hsl(160.5,65%,78%)" stroke="#374151" stroke-width="0.8"><title>b64</title></rect>
<rect x="959.844" y="50.000" width="7.923" height="8.715" fill="hsl(298.0,65%,78%)" stroke="#374151" stroke-width="0.8"><title>b65</title></rect>
<rect x="1026.663" y="50.000" width="8.187" height="8.187" fill="hsl(75.5,65%,78%)" stroke="#374151" stroke-width="0.8"><title>b66</title></rect>
<rect x="351.609" y="50.000" width="9.772" height="11.621" fill="hsl(213.0,65%,78%)" stroke="#374151" stroke-width="0.8"><title>b67</title></rect>
<rect x="875.858" y="50.000" width="6.339" height="9.244" fill="hsl(350.5,65%,78%)" stroke="#374151" stroke-width="0.8"><title>b68</title></rect>
<rect x="688.607" y="50.000" width="5.018" height="10.036" fill="hsl(128.1,65%,78%)" stroke="#374151" stroke-width="0.8"><title>b69</title></rect>
<rect x="840.732" y="50.000" width="3.697" height="9.508" fill="hsl(265.6,65%,78%)" stroke="#374151" stroke-width="0.8"><title>b70</title></rect>
<rect x="490.264" y="50.000" width="8.980" height="11.092" fill="hsl(43.1,65%,78%)" stroke="#374151" stroke-width="0.8"><title>b71</title></rect>
<rect x="910.192" y="50.000" width="8.715" height="8.980" fill="hsl(180.6,65%,78%)" stroke="#374151" stroke-width="0.8"><title>b72</title></rect>
<rect x="693.625" y="50.000" width="4.754" height="10.036" fill="hsl(318.1,65%,78%)" stroke="#374151" stroke-width="0.8"><title>b73</title></rect>
<rect x="1069.712" y="50.000" width="4.754" height="7.659" fill="hsl(95.6,65%,78%)" stroke="#374151" stroke-width="0.8"><title>b74</title></rect>
<rect x="1108.271" y="50.000" width="6.074" height="7.131" fill="hsl(233.1,65%,78%)" stroke="#374151" stroke-width="0.8"><title>b75</title></rect>
<rect x="982.029" y="58.715" width="3.169" height="3.697" fill="hsl(10.6,65%,78%)" stroke="#374151" stroke-width="0.8"><title>b76</title></rect>
<rect x="1034.850" y="58.187" width="6.339" height="4.226" fill="hsl(148.1,65%,78%)" stroke="#374151" stroke-width="0.8"><title>b77</title></rect>
<rect x="437.971" y="50.000" width="6.867" height="11.357" fill="hsl(285.6,65%,78%)" stroke="#374151" stroke-width="0.8"><title>b78</title></rect>
<rect x="744.862" y="50.000" width="5.018" height="9.772" fill="hsl(63.1,65%,78%)" stroke="#374151" stroke-width="0.8"><title>b79</title></rect>
<rect x="988.896" y="58.715" width="3.962" height="3.697" fill="hsl(200.6,65%,78%)" stroke="#374151" stroke-width="0.8"><title>b80</title></rect>
<rect x="1021.381" y="50.000" width="5.282" height="8.451" fill="hsl(338.1,65%,78%)" stroke="#374151" stroke-width="0.8"><title>b81</title></rect>
<rect x="943.205" y="50.000" width="8.451" height="8.715" fill="hsl(115.7,65%,78%)" stroke="#374151" stroke-width="0.8"><title>b82</title></rect>
<rect x="749.880" y="50.000" width="5.018" height="9.772" fill="hsl(253.2,65%,78%)" stroke="#374151" stroke-width="0.8"><title>b83</title></rect>
<rect x="405.486" y="50.000" width="9.772" height="11.357" fill="hsl(30.7,65%,78%)" stroke="#374151" stroke-width="0.8"><title>b84</title></rect>
<rect x="88.031" y="52.641" width="12.677" height="9.772" fill="hsl(168.2,65%,78%)" stroke="#374151" stroke-width="0.8"><title>b85</title></rect>
<rect x="1143.661" y="50.000" width="6.339" height="6.339" fill="hsl(305.7,65%,78%)" stroke="#374151" stroke-width="0.8"><title>b86</title></rect>
<rect x="317.011" y="50.000" width="5.018" height="11.885" fill="hsl(83.2,65%,78%)" stroke="#374151" stroke-width="0.8"><title>b87</title></rect>
<rect x="430.576" y="50.000" width="7.395" height="11.357" fill="hsl(220.7,65%,78%)" stroke="#374151" stroke-width="0.8"><title>b88</title></rect>
<rect x="889.592" y="50.000" width="3.169" height="9.244" fill="hsl(358.2,65%,78%)" stroke="#374151" stroke-width="0.8"><title>b89</title></rect>
<rect x="304.862" y="50.000" width="6.339" height="11.885" fill="hsl(135.7,65%,78%)" stroke="#374151" stroke-width="0.8"><title>b90</title></rect>
<rect x="361.381" y="50.000" width="7.395" height="11.621" fill="hsl(273.2,65%,78%)" stroke="#374151" stroke-width="0.8"><title>b91</title></rect>
<rect x="524.070" y="50.000" width="6.339" height="11.092" fill="hsl(50.7,65%,78%)" stroke="#374151" stroke-width="0.8"><title>b92</title></rect>
<rect x="451.441" y="50.000" width="5.546" height="11.357" fill="hsl(188.2,65%,78%)" stroke="#374151" stroke-width="0.8"><title>b93</title></rect>
<rect x="1021.381" y="58.451" width="4.226" height="3.962" fill="hsl(325.8,65%,78%)" stroke="#374151" stroke-width="0.8"><title>b94</title></rect>
<rect x="803.493" y="50.000" width="6.603" height="9.508" fill="hsl(103.3,65%,78%)" stroke="#374151" stroke-width="0.8"><title>b95</title></rect>
<rect x="298.259" y="50.000" width="6.603" height="11.885" fill="hsl(240.8,65%,78%)" stroke="#374151" stroke-width="0.8"><title>b96</title></rect>
<rect x="1074.466" y="50.000" width="6.603" height="7.395" fill="hsl(18.3,65%,78%)" stroke="#374151" stroke-width="0.8"><title>b97</title></rect>
<rect x="1133.625" y="50.000" width="4.226" height="6.867" fill="hsl(155.8,65%,78%)" stroke="#374151" stroke-width="0.8"><title>b98</title></rect>
<rect x="739.580" y="50.000" width="5.282" height="9.772" fill="hsl(293.3,65%,78%)" stroke="#374151" stroke-width="0.8"><title>b99</title></rect>
<rect x="1101.669" y="50.000" width="6.603" height="7.131" fill="hsl(70.8,65%,78%)" stroke="#374151" stroke-width="0.8"><title>b100</title></rect>
<rect x="75.354" y="50.000" width="12.677" height="10.564" fill="hsl(208.3,65%,78%)" stroke="#374151" stroke-width="0.8"><title>b101</title></rect>
<rect x="676.987" y="50.000" width="6.603" height="10.036" fill="hsl(345.8,65%,78%)" stroke="#374151" stroke-width="0.8"><title>b102</title></rect>
<rect x="992.857" y="50.000" width="8.451" height="8.451" fill="hsl(123.3,65%,78%)" stroke="#374151" stroke-width="0.8"><title>b103</title></rect>
<rect x="783.685" y="50.000" width="6.603" height="9.508" fill="hsl(260.8,65%,78%)" stroke="#374151" stroke-width="0.8"><title>b104</title></rect>
<rect x="507.959" y="50.000" width="8.187" height="11.092" fill="hsl(38.3,65%,78%)" stroke="#374151" stroke-width="0.8"><title>b105</title></rect>
<rect x="636.050" y="50.000" width="8.980" height="10.300" fill="hsl(175.8,65%,78%)" stroke="#374151" stroke-width="0.8"><title>b106</title></rect>
<rect x="322.029" y="50.000" width="4.226" height="11.885" fill="hsl(313.4,65%,78%)" stroke="#374151" stroke-width="0.8"><title>b107</title></rect>
<rect x="892.761" y="58.980" width="8.715" height="3.169" fill="hsl(90.9,65%,78%)" stroke="#374151" stroke-width="0.8"><title>b108</title></rect>
<rect x="875.858" y="59.244" width="5.810" height="3.169" fill="hsl(228.4,65%,78%)" stroke="#374151" stroke-width="0.8"><title>b109</title></rect>
<rect x="368.776" y="50.000" width="6.074" height="11.621" fill="hsl(5.9,65%,78%)" stroke="#374151" stroke-width="0.8"><title>b110</title></rect>
<rect x="931.321" y="58.980" width="4.754" height="3.433" fill="hsl(143.4,65%,78%)" stroke="#374151" stroke-width="0.8"><title>b111</title></rect>
<rect x="231.969" y="50.000" width="4.754" height="12.149" fill="hsl(280.9,65%,78%)" stroke="#374151" stroke-width="0.8"><title>b112</title></rect>
<rect x="423.181" y="50.000" width="7.395" height="11.357" fill="hsl(58.4,65%,78%)" stroke="#374151" stroke-width="0.8"><title>b113</title></rect>
<rect x="656.915" y="50.000" width="5.018" height="10.300" fill="hsl(195.9,65%,78%)" stroke="#374151" stroke-width="0.8"><title>b114</title></rect>
<rect x="711.585" y="50.000" width="7.923" height="9.772" fill="hsl(333.4,65%,78%)" stroke="#374151" stroke-width="0.8"><title>b115</title></rect>
<rect x="461.212" y="50.000" width="9.772" height="11.092" fill="hsl(110.9,65%,78%)" stroke="#374151" stroke-width="0.8"><title>b116</title></rect>
<rect x="733.241" y="50.000" width="6.339" height="9.772" fill="hsl(248.4,65%,78%)" stroke="#374151" stroke-width="0.8"><title>b117</title></rect>
<rect x="626.807" y="50.000" width="9.244" height="10.300" fill="hsl(25.9,65%,78%)" stroke="#374151" stroke-width="0.8"><title>b118</title></rect>
<rect x="810.096" y="50.000" width="6.339" height="9.508" fill="hsl(163.5,65%,78%)" stroke="#374151" stroke-width="0.8"><title>b119</title></rect>
<rect x="326.255" y="50.000" width="3.962" height="11.885" fill="hsl(301.0,65%,78%)" stroke="#374151" stroke-width="0.8"><title>b120</title></rect>
<rect x="289.808" y="50.000" width="8.451" height="11.885" fill="hsl(78.5,65%,78%)" stroke="#374151" stroke-width="0.8"><title>b121</title></rect>
<rect x="415.258" y="50.000" width="7.923" height="11.357" fill="hsl(216.0,65%,78%)" stroke="#374151" stroke-width="0.8"><title>b122</title></rect>
<rect x="886.158" y="50.000" width="3.433" height="9.244" fill="hsl(353.5,65%,78%)" stroke="#374151" stroke-width="0.8"><title>b123</title></rect>
<rect x="666.158" y="50.000" width="3.433" height="10.300" fill="hsl(131.0,65%,78%)" stroke="#374151" stroke-width="0.8"><title>b124</title></rect>
<rect x="1092.425" y="50.000" width="4.754" height="7.395" fill="hsl(268.5,65%,78%)" stroke="#374151" stroke-width="0.8"><title>b125</title></rect>
<rect x="669.592" y="50.000" width="7.395" height="10.036" fill="hsl(46.0,65%,78%)" stroke="#374151" stroke-width="0.8"><title>b126</title></rect>
<rect x="1143.661" y="56.339" width="6.339" height="5.810" fill="hsl(183.5,65%,78%)" stroke="#374151" stroke-width="0.8"><title>b127</title></rect>
<rect x="790.288" y="50.000" width="6.603" height="9.508" fill="hsl(321.0,65%,78%)" stroke="#374151" stroke-width="0.8"><title>b128</title></rect>
<rect x="175.186" y="50.000" width="11.621" height="12.149" fill="hsl(98.5,65%,78%)" stroke="#374151" stroke-width="0.8"><title>b129</title></rect>
<rect x="240.156" y="50.000" width="11.621" height="11.885" fill="hsl(236.0,65%,78%)" stroke="#374151" stroke-width="0.8"><title>b130</title></rect>
<rect x="822.773" y="50.000" width="5.282" height="9.508" fill="hsl(13.5,65%,78%)" stroke="#374151" stroke-width="0.8"><title>b131</title></rect>
<rect x="698.379" y="50.000" width="4.226" height="10.036" fill="hsl(151.1,65%,78%)" stroke="#374151" stroke-width="0.8"><title>b132</title></rect>
<rect x="882.197" y="59.244" width="3.697" height="3.169" fill="hsl(288.6,65%,78%)" stroke="#374151" stroke-width="0.8"><title>b133</title></rect>
<rect x="1026.663" y="58.187" width="7.659" height="4.226" fill="hsl(66.1,65%,78%)" stroke="#374151" stroke-width="0.8"><title>b134</title></rect>
<rect x="763.349" y="50.000" width="3.962" height="9.772" fill="hsl(203.6,65%,78%)" stroke="#374151" stroke-width="0.8"><title>b135</title></rect>
<rect x="1074.466" y="57.395" width="6.339" height="5.018" fill="hsl(341.1,65%,78%)" stroke="#374151" stroke-width="0.8"><title>b136</title></rect>
<rect x="1081.068" y="57.395" width="5.810" height="4.754" fill="hsl(118.6,65%,78%)" stroke="#374151" stroke-width="0.8"><title>b137</title></rect>
<rect x="1057.299" y="50.000" width="5.810" height="7.923" fill="hsl(256.1,65%,78%)" stroke="#374151" stroke-width="0.8"><title>b138</title></rect>
<rect x="951.657" y="50.000" width="8.187" height="8.715" fill="hsl(33.6,65%,78%)" stroke="#374151" stroke-width="0.8"><title>b139</title></rect>
<rect x="918.908" y="58.980" width="4.226" height="3.169" fill="hsl(171.1,65%,78%)" stroke="#374151" stroke-width="0.8"><title>b140</title></rect>
<rect x="918.908" y="50.000" width="6.603" height="8.980" fill="hsl(308.6,65%,78%)" stroke="#374151" stroke-width="0.8"><title>b141</title></rect>
<rect x="224.838" y="50.000" width="7.131" height="12.149" fill="hsl(86.1,65%,78%)" stroke="#374151" stroke-width="0.8"><title>b142</title></rect>
<rect x="186.807" y="50.000" width="11.621" height="12.149" fill="hsl(223.6,65%,78%)" stroke="#374151" stroke-width="0.8"><title>b143</title></rect>
<rect x="1063.109" y="50.000" width="6.603" height="7.659" fill="hsl(1.2,65%,78%)" stroke="#374151" stroke-width="0.8"><title>b144</title></rect>
<rect x="272.377" y="50.000" width="8.980" height="11.885" fill="hsl(138.7,65%,78%)" stroke="#374151" stroke-width="0.8"><title>b145</title></rect>
<rect x="892.761" y="50.000" width="8.715" height="8.980" fill="hsl(276.2,65%,78%)" stroke="#374151" stroke-width="0.8"><title>b146</title></rect>
<rect x="859.748" y="59.244" width="8.187" height="3.169" fill="hsl(53.7,65%,78%)" stroke="#374151" stroke-width="0.8"><title>b147</title></rect>
<rect x="1063.109" y="57.659" width="6.603" height="4.490" fill="hsl(191.2,65%,78%)" stroke="#374151" stroke-width="0.8"><title>b148</title></rect>
<rect x="1137.851" y="56.603" width="5.810" height="5.810" fill="hsl(328.7,65%,78%)" stroke="#374151" stroke-width="0.8"><title>b149</title></rect>
<rect x="910.192" y="58.980" width="7.923" height="3.433" fill="hsl(106.2,65%,78%)" stroke="#374151" stroke-width="0.8"><title>b150</title></rect>
<rect x="1118.836" y="50.000" width="4.226" height="7.131" fill="hsl(243.7,65%,78%)" stroke="#374151" stroke-width="0.8"><title>b151</title></rect>
<rect x="934.490" y="50.000" width="8.715" height="8.715" fill="hsl(21.2,65%,78%)" stroke="#374151" stroke-width="0.8"><title>b152</title></rect>
<rect x="623.637" y="50.000" width="3.169" height="10.564" fill="hsl(158.7,65%,78%)" stroke="#374151" stroke-width="0.8"><title>b153</title></rect>
<rect x="330.216" y="50.000" width="11.092" height="11.621" fill="hsl(296.2,65%,78%)" stroke="#374151" stroke-width="0.8"><title>b154</title></rect>
<rect x="886.158" y="59.244" width="3.433" height="3.169" fill="hsl(73.7,65%,78%)" stroke="#374151" stroke-width="0.8"><title>b155</title></rect>
<rect x="536.218" y="50.000" width="5.018" height="11.092" fill="hsl(211.2,65%,78%)" stroke="#374151" stroke-width="0.8"><title>b156</title></rect>
<rect x="545.198" y="50.000" width="3.169" height="11.092" fill="hsl(348.8,65%,78%)" stroke="#374151" stroke-width="0.8"><title>b157</title></rect>
<rect x="1097.179" y="50.000" width="4.490" height="7.395" fill="hsl(126.3,65%,78%)" stroke="#374151" stroke-width="0.8"><title>b158</title></rect>
<rect x="816.435" y="50.000" width="6.339" height="9.508" fill="hsl(263.8,65%,78%)" stroke="#374151" stroke-width="0.8"><title>b159</title></rect>
<rect x="844.430" y="50.000" width="3.169" height="9.508" fill="hsl(41.3,65%,78%)" stroke="#374151" stroke-width="0.8"><title>b160</title></rect>
<rect x="1052.281" y="50.000" width="5.018" height="8.187" fill="hsl(178.8,65%,78%)" stroke="#374151" stroke-width="0.8"><title>b161</title></rect>
<rect x="867.935" y="59.244" width="7.923" height="3.169" fill="hsl(316.3,65%,78%)" stroke="#374151" stroke-width="0.8"><title>b162</title></rect>
<rect x="126.062" y="50.000" width="12.149" height="12.413" fill="hsl(93.8,65%,78%)" stroke="#374151" stroke-width="0.8"><title>b163</title></rect>
<rect x="1001.309" y="50.000" width="7.131" height="8.451" fill="hsl(231.3,65%,78%)" stroke="#374151" stroke-width="0.8"><title>b164</title></rect>
<rect x="557.611" y="50.000" width="8.715" height="10.828" fill="hsl(8.8,65%,78%)" stroke="#374151" stroke-width="0.8"><title>b165</title></rect>
<rect x="847.599" y="50.000" width="3.169" height="9.508" fill="hsl(146.3,65%,78%)" stroke="#374151" stroke-width="0.8"><title>b166</title></rect>
<rect x="147.455" y="50.000" width="3.697" height="12.413" fill="hsl(283.8,65%,78%)" stroke="#374151" stroke-width="0.8"><title>b167</title></rect>
<rect x="726.639" y="50.000" width="6.603" height="9.772" fill="hsl(61.3,65%,78%)" stroke="#374151" stroke-width="0.8"><title>b168</title></rect>
<rect x="217.443" y="50.000" width="7.395" height="12.149" fill="hsl(198.9,65%,78%)" stroke="#374151" stroke-width="0.8"><title>b169</title></rect>
<rect x="311.200" y="50.000" width="5.810" height="11.885" fill="hsl(336.4,65%,78%)" stroke="#374151" stroke-width="0.8"><title>b170</title></rect>
<rect x="850.768" y="50.000" width="8.980" height="9.244" fill="hsl(113.9,65%,78%)" stroke="#374151" stroke-width="0.8"><title>b171</title></rect>
<rect x="1034.850" y="50.000" width="6.603" height="8.187" fill="hsl(251.4,65%,78%)" stroke="#374151" stroke-width="0.8"><title>b172</title></rect>
<rect x="530.408" y="50.000" width="5.810" height="11.092" fill="hsl(28.9,65%,78%)" stroke="#374151" stroke-width="0.8"><title>b173</title></rect>
<rect x="1101.669" y="57.131" width="6.603" height="5.282" fill="hsl(166.4,65%,78%)" stroke="#374151" stroke-width="0.8"><title>b174</title></rect>
<rect x="850.768" y="59.244" width="8.980" height="3.169" fill="hsl(303.9,65%,78%)" stroke="#374151" stroke-width="0.8"><title>b175</title></rect>
<rect x="1046.999" y="58.187" width="5.282" height="4.226" fill="hsl(81.4,65%,78%)" stroke="#374151" stroke-width="0.8"><title>b176</title></rect>
<rect x="1041.453" y="50.000" width="5.546" height="8.187" fill="hsl(218.9,65%,78%)" stroke="#374151" stroke-width="0.8"><title>b177</title></rect>
<rect x="1118.836" y="57.131" width="4.226" height="5.282" fill="hsl(356.4,65%,78%)" stroke="#374151" stroke-width="0.8"><title>b178</title></rect>
<rect x="251.777" y="50.000" width="10.828" height="11.885" fill="hsl(133.9,65%,78%)" stroke="#374151" stroke-width="0.8"><title>b179</title></rect>
<rect x="1086.879" y="57.395" width="5.546" height="5.018" fill="hsl(271.4,65%,78%)" stroke="#374151" stroke-width="0.8"><title>b180</title></rect>
<rect x="541.236" y="50.000" width="3.962" height="11.092" fill="hsl(48.9,65%,78%)" stroke="#374151" stroke-width="0.8"><title>b181</title></rect>
<rect x="901.477" y="58.980" width="8.715" height="3.169" fill="hsl(186.5,65%,78%)" stroke="#374151" stroke-width="0.8"><title>b182</title></rect>
<rect x="754.898" y="50.000" width="4.226" height="9.772" fill="hsl(324.0,65%,78%)" stroke="#374151" stroke-width="0.8"><title>b183</title></rect>
<rect x="1108.271" y="57.131" width="5.018" height="5.282" fill="hsl(101.5,65%,78%)" stroke="#374151" stroke-width="0.8"><title>b184</title></rect>
<rect x="379.868" y="50.000" width="3.433" height="11.621" fill="hsl(239.0,65%,78%)" stroke="#374151" stroke-width="0.8"><title>b185</title></rect>
<rect x="113.385" y="53.962" width="12.677" height="3.433" fill="hsl(16.5,65%,78%)" stroke="#374151" stroke-width="0.8"><title>b186</title></rect>
<rect x="925.510" y="56.074" width="5.810" height="6.339" fill="hsl(154.0,65%,78%)" stroke="#374151" stroke-width="0.8"><title>b187</title></rect>
<rect x="611.489" y="50.000" width="6.339" height="10.564" fill="hsl(291.5,65%,78%)" stroke="#374151" stroke-width="0.8"><title>b188</title></rect>
<rect x="1046.999" y="50.000" width="5.282" height="8.187" fill="hsl(69.0,65%,78%)" stroke="#374151" stroke-width="0.8"><title>b189</title></rect>
<rect x="702.605" y="50.000" width="8.980" height="9.772" fill="hsl(206.5,65%,78%)" stroke="#374151" stroke-width="0.8"><title>b190</title></rect>
<rect x="470.984" y="50.000" width="9.772" height="11.092" fill="hsl(344.0,65%,78%)" stroke="#374151" stroke-width="0.8"><title>b191</title></rect>
<rect x="1081.068" y="50.000" width="5.810" height="7.395" fill="hsl(121.5,65%,78%)" stroke="#374151" stroke-width="0.8"><title>b192</title></rect>
<rect x="383.301" y="50.000" width="11.092" height="11.357" fill="hsl(259.0,65%,78%)" stroke="#374151" stroke-width="0.8"><title>b193</title></rect>
<rect x="394.394" y="50.000" width="11.092" height="11.357" fill="hsl(36.6,65%,78%)" stroke="#374151" stroke-width="0.8"><title>b194</title></rect>
<rect x="796.891" y="50.000" width="6.603" height="9.508" fill="hsl(174.1,65%,78%)" stroke="#374151" stroke-width="0.8"><title>b195</title></rect>
<rect x="661.933" y="50.000" width="4.226" height="10.300" fill="hsl(311.6,65%,78%)" stroke="#374151" stroke-width="0.8"><title>b196</title></rect>
<rect x="138.211" y="50.000" width="9.244" height="12.413" fill="hsl(89.1,65%,78%)" stroke="#374151" stroke-width="0.8"><title>b197</title></rect>
<rect x="617.827" y="50.000" width="5.810" height="10.564" fill="hsl(226.6,65%,78%)" stroke="#374151" stroke-width="0.8"><title>b198</title></rect>
<rect x="578.739" y="50.000" width="8.980" height="10.564" fill="hsl(4.1,65%,78%)" stroke="#374151" stroke-width="0.8"><title>b199</title></rect>
<text x="50" y="1182" font-family="sans-serif" font-size="14" fill="#111827">4165 × 47; area=195755; aspect=88.6170; dead-space=11.4169%</text>
</svg>
